<svg xmlns="http://www.w3.org/2000/svg" xmlns:xlink="http://www.w3.org/1999/xlink" viewBox="0 0 5002 2157.3"><defs><style>.cls-1{fill:none;}.cls-2{clip-path:url(#clip-path);}.cls-3{fill:#012b16;stroke:#000;stroke-miterlimit:10;stroke-width:2px;}.cls-4{opacity:0.25;}.cls-5{fill:#05d96d;}</style><clipPath id="clip-path"><rect class="cls-1" x="1" y="59.09" width="5000" height="2000"/></clipPath></defs><title>integration-bg</title><g id="Layer_2" data-name="Layer 2"><g id="Layer_1-2" data-name="Layer 1"><g class="cls-2"><rect class="cls-3" x="1" y="59.09" width="5000" height="2000"/><g class="cls-4"><path class="cls-5" d="M2071.59,38.53c-56.51,22.8-107.07,56.22-155.65,92.6-23.77,17.8-47.17,36.11-71.15,53.64-24.75,18.09-50.58,34.47-76.09,51.45-50.81,33.82-100.93,69.69-143.8,113.4q-15,15.27-28.61,31.79c-9.15,11.12-19.38,21.24-28.62,32.31-16.42,19.69-30.8,41.2-41.18,64.69-40.94,92.7-7.15,196.46,48.88,274.94,55.59,77.87,129.14,141,196.92,207.79,63,62.12,131.82,131.95,156.15,219.68,14,50.31,11.42,107.77-2.71,157.69-17.2,60.8-53.55,112.35-96.8,157.43-67.84,70.71-153.14,143.73-146.1,251.45,5.84,89.19,71.15,162,138.67,214.06,92.34,71.16,203.53,118,315.53,148.08,97.61,26.23,199.41,39.37,300.21,45.08,96.37,5.46,194.86,3.78,289.63-16.17,73.7-15.53,154-44.05,201.09-106.42,13.24-17.55,21.85-37.38,30.95-57.27,13.87-30.31,27.37-60.8,41-91.21,26.88-60,54.5-119.65,86.43-177.13,33.86-60.94,74.6-117.24,112-175.93,37.72-59.15,74.94-118.32,118.42-173.49,41.06-52.08,82.71-104.25,116.29-161.61,15.29-26.12,28.85-53.4,38.88-82,9.74-27.76,14.57-56.08,17.56-85.24,11.7-114,.57-230.57-46.45-336-48.36-108.39-132.08-194.3-222-269.5-96.51-80.66-202.41-150-311.78-211.85C2796.41,147,2678.66,89.46,2557.42,43.27c-104-39.63-222-49.93-332.21-39.41-52.36,5-104.58,15.32-153.62,34.67-3.55,1.41-2,7.21,1.6,5.79C2177.13,3.3,2296-1,2405.81,13.08c52.86,6.77,105.49,18.5,155.19,38,60.52,23.73,120.08,50,178.7,78.12,116,55.64,228.74,118.87,335.19,191.26,94.3,64.12,185.39,135.71,261.82,220.75,82.36,91.62,133.92,204.71,147.29,327.29,6.14,56.27,4.86,113.17-1.5,169.36-7.16,63.21-32.39,119.8-66,173.31-35.1,55.88-77.22,106.62-117.4,158.81-41,53.24-75.87,110.72-112.11,167.2-36.9,57.52-76.55,112.81-109.47,172.83-31,56.51-57.95,115.08-84.28,173.86-13.13,29.31-26.15,58.67-39.51,87.87-9.09,19.87-17.67,39.78-30.95,57.27-22.25,29.32-53.11,51-85.9,67-79.92,39.18-172.75,50.41-260.65,54-97.15,4-194.89-2.81-291-16.85-112.47-16.43-222.79-45.87-325.55-95.13-90.5-43.39-184-103.44-237.33-191.07-21.54-35.42-35.09-75.85-33.8-117.63,1.48-47.7,22.31-91.58,51-128.92,36.06-46.92,82.24-84.73,120.48-129.74,36.65-43.14,65-95.18,76.47-150.92,9.56-46.59,10.25-97.89-3.18-143.82-11.51-39.37-32.51-75.32-56.83-108.08-55.78-75.12-127.74-136.58-193.88-202.15-65.37-64.82-131.07-135.81-157.32-226.25-15.32-52.8-15.75-108.58,7-159.33,10.73-23.94,25.65-45.84,42.67-65.73,18.61-21.74,37.47-43.82,57.71-64.07,43.51-43.53,94.09-79.19,145.27-113,24.88-16.45,49.86-32.58,73.9-50.27,23-17,45.59-34.6,68.51-51.74,47.7-35.66,97.43-68.62,152.89-91C2076.72,42.89,2075.18,37.09,2071.59,38.53Z"/><path class="cls-5" d="M1921.59,1565.72c23.94-48.63,68.44-83.94,104.61-123.06s72.57-85.14,86-137.9c25.5-100.32-31.15-199.79-94.37-273.11-67.5-78.27-148-144.17-215-222.9-67.27-79-125.38-182.1-95.79-289,12.63-45.62,43-81.94,77.06-113.61,36-33.51,74.77-64.59,112.9-95.67,77.11-62.85,159.42-117.41,252.41-153.88,50.43-19.79,101.06-33.75,155.4-36.31,53.55-2.52,107.29,3.39,159.74,14,100.27,20.32,197.51,57.17,287.67,105.28,99.06,52.86,190.21,119.41,275.9,191.69,39.52,33.35,77.94,68,115.76,103.24,40,37.34,78.39,76,111.14,120.07,59,79.36,103.82,177.25,91.67,278.3-6.39,53.14-30.77,99.89-56.71,145.89a1100.17,1100.17,0,0,1-97.4,144.83c-37.06,46.57-78.8,88.94-118.21,133.46-33.24,37.55-63.14,77-87.74,120.72-35.9,63.87-65,131.3-102.14,194.51-40.64,69.19-91.39,132.28-157.75,178.35-38.89,27-81.78,47.79-126.54,63.06-46.47,15.85-94.84,22.46-143.8,24.24-89.94,3.28-182.23-6.3-269.89-26.68-28-6.51-55.49-15.77-82.2-26.28-48.48-19.1-96.11-43.93-135.4-78.55-41.82-36.85-72-86.18-71.89-143.25,0-34,10.09-67,24.6-97.47,1.66-3.47-3.51-6.52-5.18-3-27.11,56.9-35.78,121.16-6.72,179.07,24.65,49.12,69.56,85.35,116.3,112.41,39.81,23,82.86,40.67,126.81,54.09,43.33,13.23,88.29,20.63,133.13,26.52,52.69,6.93,106,10.66,159.1,9.5,48.63-1.06,98-6,144.53-20.77,85.57-27.14,163-74.19,223.24-141.1,51.92-57.68,89.19-126,123.89-194.93,16.55-32.86,32.66-66,50.39-98.19,24.74-45,54.39-85.78,88.31-124.36,40-45.45,82.59-88.46,120.39-135.79a1110.17,1110.17,0,0,0,97.07-143.3c25.9-45.51,50.88-92,58.67-144.44,6.93-46.71,1.75-94.31-12.11-139.31C3307.94,700,3237.71,614.37,3161,542.32c-78-73.25-158.52-144.13-245.32-206.89-88.58-64-183.67-119-285.82-158.41-98-37.76-203.69-65-309.32-63.23s-207.21,44.09-296.63,98c-40.36,24.35-78.44,52.21-115.26,81.6-38.51,30.74-76.65,62.32-113.67,94.84-34.82,30.6-68.48,64.81-86.34,108.38-19,46.27-20,100.14-6.82,148,27.73,100.52,103,179.83,175.06,251.29,37.62,37.31,76.17,73.73,112.22,112.58,36.43,39.27,71,80.92,94,129.64s36.29,105,24.84,158.42c-12.18,56.79-52,105.9-90.94,147.12-35.31,37.34-77.49,72.06-100.58,119C1914.71,1566.14,1919.89,1569.18,1921.59,1565.72Z"/><path class="cls-5" d="M2129.47,1476.33c26.28-34.55,52.92-68.83,79.21-103.38,13.76-18.1,28.69-35.69,37.57-56.85,8.06-19.23,11.08-40,10.46-60.82-.62-20.48-4.44-40.74-8.87-60.69-4.54-20.47-8.46-41.48-14.87-61.45-13.11-40.8-36.69-77.55-61.2-112.33-26.37-37.42-54.38-73.57-80-111.55-28.22-41.91-55.94-84.17-82.39-127.23-41.89-68.2-87.16-139.87-96.38-221.2-4.08-36-.36-73.22,16.25-105.8,17.29-33.92,47.83-58.87,77.62-81.53,67-50.93,144-89.43,224.61-113.43C2319.44,233.88,2412.64,226,2503,243.5c78.45,15.22,152,48.21,219.65,90.24,62.48,38.83,119.77,85.06,176.46,131.76,63.91,52.64,129.67,103.21,185.52,164.74,54.07,59.56,105.41,134.34,99.85,218.5-5.42,82.12-53.11,155.15-108,213.55-31.9,33.91-68.07,62.4-103.42,92.49a1288.08,1288.08,0,0,0-97.19,91.61c-57,59.78-107.34,125.48-152.18,194.8-17.77,27.48-35,55.17-49.47,84.55-12.55,25.49-24.09,51.46-37,76.76-27.52,53.83-62.61,105.88-117.13,135.27-33.31,18-69.77,24.28-107,28.19-36.41,3.83-73.25,5.06-109.76,1.79-51.87-4.65-105.61-18.9-146.7-52.32a167.16,167.16,0,0,1-58.54-95.35c-7.13-34.07-3.75-70.16,8.68-102.6a168.32,168.32,0,0,1,22.75-41.15c2.33-3.08-2.88-6.07-5.18-3-20.41,27-32.09,60.2-35.14,93.78-3.3,36.21,4,73.35,22.29,104.92,21.82,37.74,57.66,64.45,97.68,80.52,60.29,24.2,128.06,26.24,192,20.59,37.41-3.31,74.94-8.2,109.42-23.92,28.06-12.79,52.83-31.86,73.44-54.72,40.08-44.46,63.91-100,89.46-153.41,31.77-66.35,73.84-128.2,118.28-186.66a1250.38,1250.38,0,0,1,182.47-192.72c35.63-30.51,72.39-59.14,104.76-93.28,29.23-30.82,55.7-64.75,75.88-102.23,18.16-33.74,31-70.47,35-108.71,3.86-37.62-2.92-74.34-17.73-109-35.13-82.25-103.36-148.55-169.93-206-29.53-25.48-60.28-49.52-90.38-74.31-27.74-22.85-55.47-45.72-83.89-67.72-61.14-47.33-125.76-90.89-196.64-122.31-77.9-34.52-162.13-52.93-247.5-49.81-90.72,3.31-180.07,28.52-261.56,67.93a703.13,703.13,0,0,0-107.59,64.15c-29.22,21.26-60.2,44.8-80.65,75-41.85,61.86-31.4,141.44-6,207.5,14.84,38.59,35.76,74.31,56.78,109.78,25.87,43.66,53.22,86.42,81.27,128.71,26.74,40.32,54.77,79.46,83.35,118.48,26.85,36.66,53.81,74.44,71.2,116.69,8.31,20.17,12.64,41.21,17.57,62.36,5,21.58,10.15,43.3,12,65.43,1.81,21.7.22,43.64-7.28,64.22-8.57,23.54-25.11,42.7-40.09,62.38-26,34.21-52.4,68.15-78.42,102.36C2122,1476.38,2127.16,1479.37,2129.47,1476.33Z"/><path class="cls-5" d="M2218.53,1564.2a183.6,183.6,0,0,1,12.49-66.79c8.53-21.68,21.13-41.57,34.87-60.29,15.44-21,33.49-40.11,48.17-61.69a264.21,264.21,0,0,0,32.2-64.88c14.67-44,16.78-91.32,8.18-136.77-4.75-25.07-13.24-49.12-22-73-9.81-26.84-20.51-53.35-31.73-79.63-23-54-48.34-106.91-73.87-159.71-11.64-24.08-23.1-47.61-29.17-73.82a224.27,224.27,0,0,1-4.68-76.24c2.51-21.53,8.16-44.77,20.64-62.84,9.92-14.34,24-25.48,38.77-34.47,36.9-22.43,80.21-34,122.32-41.84,46.59-8.71,94.28-12.35,141.66-12.08,44,.25,89.13,4.52,130.34,21,41.05,16.45,74.52,46.08,97.48,83.75,24,39.33,35.47,84.41,44.3,129.18,4.13,20.95,7.7,42,12.13,62.92,5.36,25.3,9.5,50.58,10.59,76.47,2.15,51.3-6.3,102.46-23.69,150.72-19,52.58-48.8,99.15-79.69,145.35-30.51,45.61-62.06,90.55-90.93,137.23-27.73,44.86-53.12,91.52-71.5,141-16.75,45.14-28.44,97.59-69.78,127.31-36.83,26.48-85.26,36-129.91,33.29-39-2.36-84.75-14.27-109.52-47-12.53-16.54-17.56-36.76-17.69-57.26,0-3.86-6-3.87-6,0,.14,21,5.18,42,17.71,59.22,10.83,14.86,25.91,25.91,42.48,33.61,41.1,19.1,89.86,22,133.9,13.16,41.92-8.45,81.75-28.5,105.16-65.36,14.3-22.51,22.94-47.91,31.53-73a679.34,679.34,0,0,1,31.32-76.79c24.17-49.79,53.88-96.65,84.56-142.63,31.51-47.24,65.14-93.42,94.07-142.32,27.61-46.68,48.5-97.66,58.11-151.17a401.49,401.49,0,0,0-2.85-153.89c-18.8-88.88-27.76-187.94-99.7-252.51-68.5-61.48-169.25-62.4-255.85-56.25-46,3.27-92.33,10.31-136.55,23.83-36.31,11.11-75.54,27.08-101,56.47-13.15,15.16-20.3,34-24.74,53.35-5.74,25.08-6.3,51.16-2.87,76.6a243.2,243.2,0,0,0,21.15,71.54c12.68,26.8,25.85,53.36,38.56,80.15,26,54.74,51.05,110,72.64,166.61,9.62,25.23,19.41,50.77,25.65,77.09a282.12,282.12,0,0,1,7.68,73.75,257.78,257.78,0,0,1-46.7,139.8c-15.44,22.06-34.06,41.72-49.71,63.66-13.36,18.75-25.23,38.7-33.22,60.36a188.53,188.53,0,0,0-11.3,64.7C2212.51,1568.06,2218.51,1568.07,2218.53,1564.2Z"/><path class="cls-5" d="M2300.6,746.83A143,143,0,0,0,2287.43,824c2.92,26.61,12.4,52,24.67,75.63,13.24,25.55,29.74,49.29,47.14,72.15,13.38,17.58,27.05,34.88,42.93,50.3a273.21,273.21,0,0,0,49.9,38.71c19.39,11.59,40.56,20.46,62.69,25.16a181.17,181.17,0,0,0,73.63.25c6.56-1.33,13.09-3,19.6-4.53a141.08,141.08,0,0,0,19.36-6.08,122.92,122.92,0,0,0,33.73-19.92,147.3,147.3,0,0,0,39.5-52.3c8.75-19.39,13.58-40.26,15.34-61.42a245.52,245.52,0,0,0-3.06-62c-3.39-19.63-9.68-38.37-15.7-57.3-6.77-21.26-14-42.47-24.14-62.42-10.85-21.38-25.17-41-43.39-56.75a178.38,178.38,0,0,0-52.5-31,230.59,230.59,0,0,0-58.21-13.68,277.37,277.37,0,0,0-60.35.21,285,285,0,0,0-58.32,12.56,227.44,227.44,0,0,0-50.44,23.48c-14,8.9-27.06,19.71-37.31,32.84a103.51,103.51,0,0,0-11.9,18.91c-1.67,3.47,3.51,6.51,5.18,3,6.61-13.75,16.51-25.53,28-35.49,12.91-11.21,27.78-20.09,43.27-27.24a256.31,256.31,0,0,1,53.66-17.56,284.3,284.3,0,0,1,58.45-6.28,252.27,252.27,0,0,1,58.35,6.41,195.73,195.73,0,0,1,53.19,20.58,163.38,163.38,0,0,1,49.39,44c13.38,18,23.11,38.43,30.93,59.41,3.75,10.09,7.11,20.32,10.37,30.58,3,9.42,6.17,18.82,9,28.3a253,253,0,0,1,10,57.27,211.45,211.45,0,0,1-5,60.92c-4.83,20.26-13.23,39.6-25.61,56.41-14,19-32.83,34.41-54.92,43a143.23,143.23,0,0,1-18.76,5.8c-6.51,1.53-13,3.19-19.59,4.51a174.72,174.72,0,0,1-36.72,3.42,180.94,180.94,0,0,1-66.36-14,230.37,230.37,0,0,1-54.73-32.54,299.08,299.08,0,0,1-42.07-40.68c-7.87-9.23-15.28-18.87-22.62-28.53-8.67-11.4-17.07-23-25-35-15-22.6-28.44-46.55-37.12-72.32-8-23.86-11.76-49.43-7.63-74.45a137.64,137.64,0,0,1,11.54-36.56C2307.43,746.39,2302.26,743.34,2300.6,746.83Z"/></g></g></g></g></svg>