<svg xmlns="http://www.w3.org/2000/svg" viewBox="0 0 190.43 40.5"><defs><style>.cls-1{fill:#00e26f;stroke:#00e26f;stroke-miterlimit:10;}</style></defs><title>chatout-logo</title><g id="Layer_2" data-name="Layer 2"><g id="Layer_1-2" data-name="Layer 1"><path d="M14,18.4a6.43,6.43,0,0,0-4.81,2A7.48,7.48,0,0,0,7.2,25.87a7.59,7.59,0,0,0,2,5.5,6.53,6.53,0,0,0,4.85,2,5.93,5.93,0,0,0,4.06-1.33,6.69,6.69,0,0,0,2.06-3.17L26.47,31a12.09,12.09,0,0,1-4.22,6.34A12.59,12.59,0,0,1,14,40,13.56,13.56,0,0,1,4,36a13.7,13.7,0,0,1-4-10.1A13.79,13.79,0,0,1,4,15.75a13.3,13.3,0,0,1,9.82-4,12.86,12.86,0,0,1,8.34,2.62,11.7,11.7,0,0,1,4.17,6.36L19.86,22.9A5.62,5.62,0,0,0,14,18.4Z"/><path d="M39,23.55V39.19h-7.2V0H39V14.78q2.43-2.92,7.2-2.93c3.25,0,5.71,1,7.39,3a11.32,11.32,0,0,1,2.52,7.61V39.19h-7.2V23.65a5.81,5.81,0,0,0-1.22-3.84A4.57,4.57,0,0,0,44,18.35a4.55,4.55,0,0,0-3.54,1.46A5.73,5.73,0,0,0,39,23.55Z"/><path d="M61.76,31.94A7.09,7.09,0,0,1,64,26.47a10.57,10.57,0,0,1,5.74-2.6l6.54-1c1.34-.18,2-.82,2-1.9a3.1,3.1,0,0,0-1.17-2.49,6,6,0,0,0-6.92.27,4.6,4.6,0,0,0-1.49,3.09L62.3,20.51a9.37,9.37,0,0,1,3.41-6.11,11.71,11.71,0,0,1,8-2.65c4,0,6.89.94,8.77,2.84a9.88,9.88,0,0,1,2.81,7.28V35a24.18,24.18,0,0,0,.33,4.22H79a14.38,14.38,0,0,1-.28-3.2c-1.69,2.64-4.31,4-7.84,4a9.22,9.22,0,0,1-6.63-2.39A7.47,7.47,0,0,1,61.76,31.94Zm10.66,2.65a6.16,6.16,0,0,0,4.2-1.44q1.65-1.42,1.65-4.73V27.23l-6,.92Q69,28.63,69,31.5a2.89,2.89,0,0,0,.92,2.19A3.47,3.47,0,0,0,72.42,34.59Z"/><path d="M101.27,4.6v8h5.36v6.38h-5.36V30.09a3.14,3.14,0,0,0,.76,2.39,3.4,3.4,0,0,0,2.38.7,8.32,8.32,0,0,0,2.22-.22v6a10.81,10.81,0,0,1-4.06.65,8.52,8.52,0,0,1-6.17-2.19,8,8,0,0,1-2.27-6V18.94H89.31V12.56h1.35a3.9,3.9,0,0,0,3.06-1.17,4.37,4.37,0,0,0,1.06-3.05V4.6Z"/><path class="cls-1" d="M114.45,15.75a14.46,14.46,0,0,1,20,0,13.75,13.75,0,0,1,4,10.12,13.73,13.73,0,0,1-4,10.12,14.44,14.44,0,0,1-20,0,13.77,13.77,0,0,1-4-10.12A13.79,13.79,0,0,1,114.45,15.75Zm5.2,15.7a6.74,6.74,0,0,0,9.58,0,7.64,7.64,0,0,0,2-5.58,7.6,7.6,0,0,0-2-5.57,6.71,6.71,0,0,0-9.58,0,7.57,7.57,0,0,0-2,5.57A7.61,7.61,0,0,0,119.65,31.45Z"/><path class="cls-1" d="M161.41,39.19a14.71,14.71,0,0,1-.22-2.87A6.39,6.39,0,0,1,158.13,39a10.65,10.65,0,0,1-4.3.89,9.5,9.5,0,0,1-7.42-3,10.79,10.79,0,0,1-2.7-7.5V12.56h7.2V27.93a5.82,5.82,0,0,0,1.24,3.87,4.47,4.47,0,0,0,3.63,1.49,4.81,4.81,0,0,0,3.68-1.44A5.31,5.31,0,0,0,160.81,28V12.56H168V34.37a40.94,40.94,0,0,0,.27,4.82Z"/><path class="cls-1" d="M184.57,4.6v8h5.36v6.38h-5.36V30.09a3.14,3.14,0,0,0,.76,2.39,3.42,3.42,0,0,0,2.38.7,8.27,8.27,0,0,0,2.22-.22v6a10.81,10.81,0,0,1-4.06.65,8.52,8.52,0,0,1-6.17-2.19,8,8,0,0,1-2.27-6V18.94h-4.82V12.56H174A3.9,3.9,0,0,0,177,11.39a4.32,4.32,0,0,0,1.06-3.05V4.6Z"/></g></g></svg>