<svg width="487" height="302" viewBox="0 0 487 302" fill="none" xmlns="http://www.w3.org/2000/svg">
<g filter="url(#filter0_d)">
<rect x="35" y="12" width="292" height="88" rx="16" fill="white"/>
<rect x="37" y="14" width="288" height="84" rx="14" stroke="#05D96D" stroke-width="4"/>
</g>
<path d="M127.087 38.9091H124.332V47.142H124.217L118.567 38.9091H116.138V52H118.906V43.7607H119.001L124.697 52H127.087V38.9091ZM132.123 52.1854C133.574 52.1854 134.513 51.5526 134.993 50.6385H135.069V52H137.652V45.3778C137.652 43.0384 135.67 42.054 133.484 42.054C131.132 42.054 129.585 43.179 129.208 44.9688L131.726 45.1733C131.912 44.5213 132.493 44.0419 133.471 44.0419C134.398 44.0419 134.929 44.5085 134.929 45.3139V45.3523C134.929 45.9851 134.258 46.0682 132.551 46.2344C130.608 46.4134 128.863 47.0653 128.863 49.2578C128.863 51.201 130.25 52.1854 132.123 52.1854ZM132.903 50.3061C132.065 50.3061 131.464 49.9162 131.464 49.1683C131.464 48.4013 132.097 48.0241 133.056 47.8899C133.65 47.8068 134.622 47.6662 134.948 47.4489V48.4908C134.948 49.5199 134.098 50.3061 132.903 50.3061ZM145.044 42.1818H143.095V41.5234C143.095 40.8587 143.363 40.4688 144.162 40.4688C144.488 40.4688 144.82 40.5391 145.038 40.6094L145.517 38.5639C145.178 38.4616 144.431 38.2955 143.593 38.2955C141.746 38.2955 140.372 39.3374 140.372 41.4723V42.1818H138.985V44.2273H140.372V52H143.095V44.2273H145.044V42.1818ZM146.708 52H149.431V42.1818H146.708V52ZM148.076 40.9162C148.887 40.9162 149.552 40.2962 149.552 39.5355C149.552 38.7812 148.887 38.1612 148.076 38.1612C147.27 38.1612 146.605 38.7812 146.605 39.5355C146.605 40.2962 147.27 40.9162 148.076 40.9162ZM159.781 44.9815C159.538 43.1726 158.081 42.054 155.601 42.054C153.089 42.054 151.433 43.2173 151.439 45.1094C151.433 46.5795 152.36 47.532 154.278 47.9155L155.978 48.2543C156.834 48.4268 157.224 48.7401 157.237 49.2322C157.224 49.8139 156.591 50.2294 155.639 50.2294C154.667 50.2294 154.022 49.8139 153.856 49.0149L151.177 49.1555C151.433 51.0348 153.031 52.1918 155.633 52.1918C158.177 52.1918 159.998 50.8942 160.005 48.9574C159.998 47.5384 159.072 46.6882 157.167 46.2983L155.39 45.9403C154.476 45.7422 154.137 45.429 154.143 44.956C154.137 44.3679 154.802 43.9844 155.645 43.9844C156.591 43.9844 157.154 44.5021 157.288 45.1349L159.781 44.9815ZM164.519 52.1854C165.97 52.1854 166.91 51.5526 167.389 50.6385H167.466V52H170.048V45.3778C170.048 43.0384 168.067 42.054 165.881 42.054C163.528 42.054 161.982 43.179 161.604 44.9688L164.123 45.1733C164.308 44.5213 164.89 44.0419 165.868 44.0419C166.795 44.0419 167.325 44.5085 167.325 45.3139V45.3523C167.325 45.9851 166.654 46.0682 164.947 46.2344C163.004 46.4134 161.259 47.0653 161.259 49.2578C161.259 51.201 162.646 52.1854 164.519 52.1854ZM165.299 50.3061C164.462 50.3061 163.861 49.9162 163.861 49.1683C163.861 48.4013 164.494 48.0241 165.452 47.8899C166.047 47.8068 167.018 47.6662 167.344 47.4489V48.4908C167.344 49.5199 166.494 50.3061 165.299 50.3061ZM178.634 52L179.606 49.0149H184.33L185.301 52H188.267L183.754 38.9091H180.188L175.669 52H178.634ZM180.309 46.8544L181.92 41.9006H182.022L183.633 46.8544H180.309ZM192.515 46.3239C192.521 45.0582 193.275 44.3168 194.375 44.3168C195.468 44.3168 196.126 45.0327 196.12 46.2344V52H198.843V45.7486C198.843 43.4602 197.501 42.054 195.455 42.054C193.998 42.054 192.943 42.7699 192.502 43.9141H192.387V42.1818H189.792V52H192.515V46.3239ZM200.989 42.1818V52.4411C200.989 53.1825 200.676 53.5533 199.8 53.5533C199.685 53.5533 199.583 53.5533 199.442 53.5405V55.669C199.64 55.6754 199.8 55.6818 199.992 55.6818C202.306 55.6818 203.712 54.7614 203.712 52.4858V42.1818H200.989ZM202.344 40.9162C203.156 40.9162 203.821 40.2962 203.821 39.5355C203.821 38.7812 203.156 38.1612 202.344 38.1612C201.539 38.1612 200.874 38.7812 200.874 39.5355C200.874 40.2962 201.539 40.9162 202.344 40.9162ZM212.189 47.8196C212.196 49.1364 211.295 49.8267 210.317 49.8267C209.287 49.8267 208.623 49.1044 208.616 47.9474V42.1818H205.893V48.4332C205.9 50.728 207.242 52.1278 209.217 52.1278C210.694 52.1278 211.755 51.3672 212.196 50.2166H212.298V52H214.912V42.1818H212.189V47.8196ZM217.091 52H219.814V46.1065C219.814 45.0199 220.504 44.2976 221.412 44.2976C222.306 44.2976 222.907 44.9112 222.907 45.8764V52H225.547V46.0043C225.547 44.9879 226.129 44.2976 227.12 44.2976C227.989 44.2976 228.641 44.8409 228.641 45.9339V52H231.358V45.397C231.358 43.2685 230.092 42.054 228.264 42.054C226.826 42.054 225.707 42.7891 225.304 43.9141H225.202C224.889 42.7763 223.885 42.054 222.537 42.054C221.213 42.054 220.21 42.7571 219.801 43.9141H219.686V42.1818H217.091V52Z" fill="black"/>
<path d="M115.793 62.6094H119.871V74H121.839V62.6094H125.924V60.9091H115.793V62.6094ZM130.721 74.1982C133.489 74.1982 135.298 72.1719 135.298 69.1357C135.298 66.0803 133.489 64.054 130.721 64.054C127.953 64.054 126.145 66.0803 126.145 69.1357C126.145 72.1719 127.953 74.1982 130.721 74.1982ZM130.728 72.5938C128.919 72.5938 128.075 71.0149 128.075 69.1293C128.075 67.25 128.919 65.652 130.728 65.652C132.524 65.652 133.368 67.25 133.368 69.1293C133.368 71.0149 132.524 72.5938 130.728 72.5938ZM142.014 64.1818H140.001V61.8295H138.09V64.1818H136.651V65.7159H138.09V71.5135C138.083 73.2969 139.445 74.1598 140.953 74.1278C141.561 74.1214 141.97 74.0064 142.193 73.9233L141.848 72.3445C141.72 72.37 141.484 72.4276 141.177 72.4276C140.557 72.4276 140.001 72.223 140.001 71.1172V65.7159H142.014V64.1818ZM146.986 74.2173C148.609 74.2173 149.523 73.3928 149.888 72.6577H149.964V74H151.831V67.4801C151.831 64.6229 149.581 64.054 148.021 64.054C146.244 64.054 144.608 64.7699 143.969 66.5597L145.765 66.9688C146.046 66.272 146.762 65.6009 148.047 65.6009C149.281 65.6009 149.913 66.2464 149.913 67.3587V67.4034C149.913 68.1001 149.197 68.0874 147.433 68.2919C145.573 68.5092 143.668 68.995 143.668 71.2259C143.668 73.1562 145.119 74.2173 146.986 74.2173ZM147.401 72.6832C146.321 72.6832 145.541 72.1974 145.541 71.2514C145.541 70.2287 146.449 69.8643 147.555 69.7173C148.175 69.6342 149.645 69.468 149.92 69.1932V70.4588C149.92 71.6222 148.993 72.6832 147.401 72.6832ZM156.288 60.9091H154.377V74H156.288V60.9091ZM160.118 66.9751C160.815 66.9751 161.397 66.4062 161.397 65.6967C161.397 65 160.815 64.4247 160.118 64.4247C159.415 64.4247 158.84 65 158.84 65.6967C158.84 66.4062 159.415 66.9751 160.118 66.9751ZM160.118 74.1214C160.815 74.1214 161.397 73.5526 161.397 72.843C161.397 72.1463 160.815 71.571 160.118 71.571C159.415 71.571 158.84 72.1463 158.84 72.843C158.84 73.5526 159.415 74.1214 160.118 74.1214ZM173.661 60.9091H171.737L168.471 63.044V64.9361L171.603 62.8906H171.68V74H173.661V60.9091ZM177.203 74H185.819V72.3061H179.926V72.2102L182.527 69.4872C184.924 67.0646 185.608 65.9077 185.608 64.4439C185.608 62.3409 183.895 60.7301 181.428 60.7301C178.98 60.7301 177.19 62.3153 177.19 64.706H179.075C179.069 63.2997 179.977 62.3793 181.389 62.3793C182.719 62.3793 183.729 63.1974 183.729 64.5014C183.729 65.6584 183.039 66.4893 181.632 67.9787L177.203 72.5682V74ZM192.799 74.2173C195.823 74.2173 197.593 71.75 197.593 67.4609C197.593 63.2038 195.797 60.7301 192.799 60.7301C189.795 60.7301 188.005 63.1974 187.999 67.4609C187.999 71.7436 189.769 74.2109 192.799 74.2173ZM192.799 72.5107C191.029 72.5107 189.961 70.7337 189.961 67.4609C189.968 64.201 191.035 62.4048 192.799 62.4048C194.557 62.4048 195.631 64.201 195.631 67.4609C195.631 70.7337 194.563 72.5107 192.799 72.5107ZM204.418 74.2173C207.442 74.2173 209.212 71.75 209.212 67.4609C209.212 63.2038 207.416 60.7301 204.418 60.7301C201.414 60.7301 199.624 63.1974 199.618 67.4609C199.618 71.7436 201.388 74.2109 204.418 74.2173ZM204.418 72.5107C202.648 72.5107 201.58 70.7337 201.58 67.4609C201.587 64.201 202.654 62.4048 204.418 62.4048C206.176 62.4048 207.25 64.201 207.25 67.4609C207.25 70.7337 206.183 72.5107 204.418 72.5107Z" fill="#929499"/>
<circle cx="79" cy="56" r="27" fill="white" stroke="black" stroke-width="2"/>
<path d="M72.9446 63.179C75.8977 63.179 78.0199 61.6001 78.0263 59.478C78.0199 57.8416 76.7607 56.5057 75.1882 56.2436V56.1541C76.5561 55.8729 77.5341 54.6903 77.5405 53.2521C77.5341 51.2259 75.5909 49.7301 72.9446 49.7301C70.2919 49.7301 68.3487 51.2259 68.3551 53.2521C68.3487 54.6839 69.3139 55.8729 70.7074 56.1541V56.2436C69.1094 56.5057 67.8629 57.8416 67.8693 59.478C67.8629 61.6001 69.9915 63.179 72.9446 63.179ZM72.9446 61.1463C71.6278 61.1463 70.7457 60.3665 70.7457 59.2607C70.7457 58.1293 71.6726 57.3111 72.9446 57.3111C74.2102 57.3111 75.1435 58.1293 75.1435 59.2607C75.1435 60.3729 74.255 61.1463 72.9446 61.1463ZM72.9446 55.2976C71.8388 55.2976 71.0526 54.5753 71.0526 53.5398C71.0526 52.517 71.826 51.8139 72.9446 51.8139C74.0568 51.8139 74.8366 52.5234 74.8366 53.5398C74.8366 54.5753 74.044 55.2976 72.9446 55.2976ZM80.4792 63H83.3365L88.7697 52.2038V49.9091H79.5843V52.1719H85.9061V52.2614L80.4792 63Z" fill="black"/>
<g filter="url(#filter1_d)">
<rect x="34" y="104" width="292" height="88" rx="16" fill="white"/>
<rect x="36" y="106" width="288" height="84" rx="14" stroke="#05D96D" stroke-width="4"/>
</g>
<path d="M115.138 144H117.906V138.592H123.524V144H126.286V130.909H123.524V136.31H117.906V130.909H115.138V144ZM131.316 144.185C132.767 144.185 133.707 143.553 134.186 142.638H134.263V144H136.845V137.378C136.845 135.038 134.864 134.054 132.678 134.054C130.325 134.054 128.778 135.179 128.401 136.969L130.92 137.173C131.105 136.521 131.687 136.042 132.665 136.042C133.592 136.042 134.122 136.509 134.122 137.314V137.352C134.122 137.985 133.451 138.068 131.744 138.234C129.801 138.413 128.056 139.065 128.056 141.258C128.056 143.201 129.443 144.185 131.316 144.185ZM132.096 142.306C131.259 142.306 130.658 141.916 130.658 141.168C130.658 140.401 131.29 140.024 132.249 139.89C132.844 139.807 133.815 139.666 134.141 139.449V140.491C134.141 141.52 133.291 142.306 132.096 142.306ZM147.127 136.982C146.884 135.173 145.426 134.054 142.946 134.054C140.434 134.054 138.779 135.217 138.785 137.109C138.779 138.58 139.706 139.532 141.623 139.915L143.324 140.254C144.18 140.427 144.57 140.74 144.583 141.232C144.57 141.814 143.937 142.229 142.985 142.229C142.013 142.229 141.368 141.814 141.201 141.015L138.523 141.156C138.779 143.035 140.377 144.192 142.978 144.192C145.522 144.192 147.344 142.894 147.35 140.957C147.344 139.538 146.417 138.688 144.512 138.298L142.735 137.94C141.821 137.742 141.483 137.429 141.489 136.956C141.483 136.368 142.147 135.984 142.991 135.984C143.937 135.984 144.5 136.502 144.634 137.135L147.127 136.982ZM151.865 144.185C153.316 144.185 154.256 143.553 154.735 142.638H154.812V144H157.394V137.378C157.394 135.038 155.412 134.054 153.226 134.054C150.874 134.054 149.327 135.179 148.95 136.969L151.469 137.173C151.654 136.521 152.236 136.042 153.214 136.042C154.14 136.042 154.671 136.509 154.671 137.314V137.352C154.671 137.985 154 138.068 152.293 138.234C150.35 138.413 148.605 139.065 148.605 141.258C148.605 143.201 149.992 144.185 151.865 144.185ZM152.645 142.306C151.807 142.306 151.206 141.916 151.206 141.168C151.206 140.401 151.839 140.024 152.798 139.89C153.393 139.807 154.364 139.666 154.69 139.449V140.491C154.69 141.52 153.84 142.306 152.645 142.306ZM162.23 138.324C162.236 137.058 162.99 136.317 164.09 136.317C165.183 136.317 165.841 137.033 165.835 138.234V144H168.558V137.749C168.558 135.46 167.215 134.054 165.17 134.054C163.713 134.054 162.658 134.77 162.217 135.914H162.102V134.182H159.507V144H162.23V138.324ZM177.177 144L178.149 141.015H182.873L183.844 144H186.81L182.297 130.909H178.731L174.211 144H177.177ZM178.852 138.854L180.463 133.901H180.565L182.176 138.854H178.852ZM191.058 138.324C191.064 137.058 191.838 136.317 192.95 136.317C194.056 136.317 194.708 137.026 194.701 138.234V144H197.424V137.749C197.431 135.447 196.075 134.054 194.03 134.054C192.541 134.054 191.544 134.757 191.096 135.914H190.981V130.909H188.335V144H191.058V138.324ZM202.367 144.185C203.818 144.185 204.757 143.553 205.237 142.638H205.314V144H207.896V137.378C207.896 135.038 205.914 134.054 203.728 134.054C201.376 134.054 199.829 135.179 199.452 136.969L201.971 137.173C202.156 136.521 202.738 136.042 203.716 136.042C204.642 136.042 205.173 136.509 205.173 137.314V137.352C205.173 137.985 204.502 138.068 202.795 138.234C200.852 138.413 199.107 139.065 199.107 141.258C199.107 143.201 200.494 144.185 202.367 144.185ZM203.147 142.306C202.309 142.306 201.708 141.916 201.708 141.168C201.708 140.401 202.341 140.024 203.3 139.89C203.895 139.807 204.866 139.666 205.192 139.449V140.491C205.192 141.52 204.342 142.306 203.147 142.306ZM210.009 144H212.732V138.107C212.732 137.02 213.422 136.298 214.33 136.298C215.224 136.298 215.825 136.911 215.825 137.876V144H218.465V138.004C218.465 136.988 219.047 136.298 220.038 136.298C220.907 136.298 221.559 136.841 221.559 137.934V144H224.276V137.397C224.276 135.268 223.01 134.054 221.182 134.054C219.744 134.054 218.625 134.789 218.222 135.914H218.12C217.807 134.776 216.803 134.054 215.455 134.054C214.131 134.054 213.128 134.757 212.719 135.914H212.604V134.182H210.009V144ZM230.901 144.192C233.33 144.192 234.966 143.009 235.35 141.188L232.831 141.021C232.556 141.769 231.853 142.159 230.946 142.159C229.584 142.159 228.721 141.258 228.721 139.794V139.788H235.407V139.04C235.407 135.703 233.387 134.054 230.792 134.054C227.903 134.054 226.03 136.106 226.03 139.136C226.03 142.249 227.877 144.192 230.901 144.192ZM228.721 138.1C228.779 136.982 229.629 136.087 230.837 136.087C232.02 136.087 232.838 136.93 232.844 138.1H228.721ZM240.802 144.16C242.387 144.16 243.212 143.246 243.589 142.428H243.704V144H246.389V130.909H243.672V135.831H243.589C243.225 135.032 242.439 134.054 240.796 134.054C238.642 134.054 236.82 135.729 236.82 139.104C236.82 142.389 238.565 144.16 240.802 144.16ZM241.665 141.993C240.329 141.993 239.6 140.804 239.6 139.091C239.6 137.391 240.316 136.221 241.665 136.221C242.988 136.221 243.73 137.339 243.73 139.091C243.73 140.842 242.975 141.993 241.665 141.993Z" fill="black"/>
<path d="M114.793 154.609H118.871V166H120.839V154.609H124.924V152.909H114.793V154.609ZM129.721 166.198C132.489 166.198 134.298 164.172 134.298 161.136C134.298 158.08 132.489 156.054 129.721 156.054C126.953 156.054 125.145 158.08 125.145 161.136C125.145 164.172 126.953 166.198 129.721 166.198ZM129.728 164.594C127.919 164.594 127.075 163.015 127.075 161.129C127.075 159.25 127.919 157.652 129.728 157.652C131.524 157.652 132.368 159.25 132.368 161.129C132.368 163.015 131.524 164.594 129.728 164.594ZM141.014 156.182H139.001V153.83H137.09V156.182H135.651V157.716H137.09V163.513C137.083 165.297 138.445 166.16 139.953 166.128C140.561 166.121 140.97 166.006 141.193 165.923L140.848 164.344C140.72 164.37 140.484 164.428 140.177 164.428C139.557 164.428 139.001 164.223 139.001 163.117V157.716H141.014V156.182ZM145.986 166.217C147.609 166.217 148.523 165.393 148.888 164.658H148.964V166H150.831V159.48C150.831 156.623 148.581 156.054 147.021 156.054C145.244 156.054 143.608 156.77 142.969 158.56L144.765 158.969C145.046 158.272 145.762 157.601 147.047 157.601C148.281 157.601 148.913 158.246 148.913 159.359V159.403C148.913 160.1 148.197 160.087 146.433 160.292C144.573 160.509 142.668 160.995 142.668 163.226C142.668 165.156 144.119 166.217 145.986 166.217ZM146.401 164.683C145.321 164.683 144.541 164.197 144.541 163.251C144.541 162.229 145.449 161.864 146.555 161.717C147.175 161.634 148.645 161.468 148.92 161.193V162.459C148.92 163.622 147.993 164.683 146.401 164.683ZM155.288 152.909H153.377V166H155.288V152.909ZM159.118 158.975C159.815 158.975 160.397 158.406 160.397 157.697C160.397 157 159.815 156.425 159.118 156.425C158.415 156.425 157.84 157 157.84 157.697C157.84 158.406 158.415 158.975 159.118 158.975ZM159.118 166.121C159.815 166.121 160.397 165.553 160.397 164.843C160.397 164.146 159.815 163.571 159.118 163.571C158.415 163.571 157.84 164.146 157.84 164.843C157.84 165.553 158.415 166.121 159.118 166.121ZM172.252 166.179C174.924 166.179 176.887 164.581 176.88 162.408C176.887 160.752 175.883 159.563 174.144 159.295V159.192C175.512 158.841 176.401 157.767 176.394 156.297C176.401 154.373 174.822 152.73 172.303 152.73C169.9 152.73 167.97 154.181 167.906 156.31H169.817C169.862 155.108 170.993 154.379 172.278 154.379C173.614 154.379 174.49 155.191 174.483 156.399C174.49 157.665 173.473 158.496 172.022 158.496H170.916V160.107H172.022C173.838 160.107 174.886 161.027 174.886 162.344C174.886 163.616 173.78 164.479 172.24 164.479C170.82 164.479 169.715 163.75 169.638 162.587H167.631C167.714 164.722 169.606 166.179 172.252 166.179ZM179.296 166H187.913V164.306H182.019V164.21L184.621 161.487C187.018 159.065 187.702 157.908 187.702 156.444C187.702 154.341 185.989 152.73 183.521 152.73C181.073 152.73 179.284 154.315 179.284 156.706H181.169C181.163 155.3 182.07 154.379 183.483 154.379C184.813 154.379 185.823 155.197 185.823 156.501C185.823 157.658 185.132 158.489 183.726 159.979L179.296 164.568V166ZM194.893 166.217C197.916 166.217 199.687 163.75 199.687 159.461C199.687 155.204 197.891 152.73 194.893 152.73C191.889 152.73 190.099 155.197 190.093 159.461C190.093 163.744 191.863 166.211 194.893 166.217ZM194.893 164.511C193.122 164.511 192.055 162.734 192.055 159.461C192.061 156.201 193.129 154.405 194.893 154.405C196.651 154.405 197.725 156.201 197.725 159.461C197.725 162.734 196.657 164.511 194.893 164.511Z" fill="#929499"/>
<circle cx="78" cy="148" r="27" fill="white" stroke="black" stroke-width="2"/>
<path d="M71.053 155.179C74.0061 155.179 76.1283 153.6 76.1347 151.478C76.1283 149.842 74.8691 148.506 73.2966 148.244V148.154C74.6645 147.873 75.6425 146.69 75.6489 145.252C75.6425 143.226 73.6993 141.73 71.053 141.73C68.4003 141.73 66.4571 143.226 66.4635 145.252C66.4571 146.684 67.4223 147.873 68.8158 148.154V148.244C67.2178 148.506 65.9713 149.842 65.9777 151.478C65.9713 153.6 68.0999 155.179 71.053 155.179ZM71.053 153.146C69.7362 153.146 68.8541 152.366 68.8541 151.261C68.8541 150.129 69.781 149.311 71.053 149.311C72.3186 149.311 73.2519 150.129 73.2519 151.261C73.2519 152.373 72.3634 153.146 71.053 153.146ZM71.053 147.298C69.9472 147.298 69.161 146.575 69.161 145.54C69.161 144.517 69.9344 143.814 71.053 143.814C72.1652 143.814 72.945 144.523 72.945 145.54C72.945 146.575 72.1524 147.298 71.053 147.298ZM83.094 155.179C86.0088 155.192 87.9967 153.281 87.9903 150.615C87.9967 148.161 86.2836 146.39 83.9633 146.39C82.5251 146.39 81.2531 147.08 80.665 148.237H80.5756C80.5883 145.687 81.4832 144.102 83.1899 144.102C84.1934 144.102 84.9157 144.651 85.1267 145.565H87.8561C87.594 143.411 85.8042 141.73 83.1899 141.73C79.9555 141.73 77.8781 144.351 77.8653 148.749C77.8589 153.543 80.403 155.166 83.094 155.179ZM83.0812 153.006C81.8028 153.006 80.8568 151.977 80.8568 150.698C80.8632 149.426 81.8284 148.391 83.1004 148.391C84.3788 148.391 85.3121 149.394 85.3057 150.692C85.3121 152.002 84.3596 153.006 83.0812 153.006Z" fill="black"/>
<g filter="url(#filter2_d)">
<rect x="15" y="196" width="292" height="88" rx="16" fill="white"/>
</g>
<path d="M103.239 226.674H105.892C105.854 224.341 103.936 222.73 101.021 222.73C98.1513 222.73 96.0483 224.315 96.0611 226.693C96.0547 228.624 97.4162 229.729 99.6278 230.26L101.053 230.618C102.479 230.963 103.271 231.372 103.278 232.254C103.271 233.213 102.364 233.865 100.957 233.865C99.5192 233.865 98.4837 233.2 98.3942 231.89H95.7159C95.7862 234.722 97.8125 236.185 100.989 236.185C104.185 236.185 106.065 234.658 106.071 232.261C106.065 230.081 104.422 228.924 102.146 228.413L100.97 228.131C99.8324 227.869 98.88 227.447 98.8991 226.508C98.8991 225.664 99.647 225.044 101.002 225.044C102.325 225.044 103.137 225.645 103.239 226.674ZM114.355 236L115.327 233.015H120.05L121.022 236H123.988L119.475 222.909H115.908L111.389 236H114.355ZM116.03 230.854L117.641 225.901H117.743L119.354 230.854H116.03ZM136.831 226.674H139.484C139.445 224.341 137.528 222.73 134.613 222.73C131.743 222.73 129.64 224.315 129.653 226.693C129.646 228.624 131.008 229.729 133.22 230.26L134.645 230.618C136.07 230.963 136.863 231.372 136.869 232.254C136.863 233.213 135.955 233.865 134.549 233.865C133.111 233.865 132.075 233.2 131.986 231.89H129.308C129.378 234.722 131.404 236.185 134.581 236.185C137.777 236.185 139.656 234.658 139.663 232.261C139.656 230.081 138.014 228.924 135.738 228.413L134.562 228.131C133.424 227.869 132.472 227.447 132.491 226.508C132.491 225.664 133.239 225.044 134.594 225.044C135.917 225.044 136.729 225.645 136.831 226.674ZM144.273 236.185C145.724 236.185 146.664 235.553 147.143 234.638H147.22V236H149.802V229.378C149.802 227.038 147.821 226.054 145.635 226.054C143.282 226.054 141.735 227.179 141.358 228.969L143.877 229.173C144.062 228.521 144.644 228.042 145.622 228.042C146.549 228.042 147.079 228.509 147.079 229.314V229.352C147.079 229.985 146.408 230.068 144.701 230.234C142.758 230.413 141.013 231.065 141.013 233.258C141.013 235.201 142.4 236.185 144.273 236.185ZM145.053 234.306C144.216 234.306 143.615 233.916 143.615 233.168C143.615 232.401 144.248 232.024 145.206 231.89C145.801 231.807 146.772 231.666 147.098 231.449V232.491C147.098 233.52 146.248 234.306 145.053 234.306ZM154.638 230.324C154.644 229.058 155.418 228.317 156.53 228.317C157.636 228.317 158.288 229.026 158.281 230.234V236H161.004V229.749C161.011 227.447 159.656 226.054 157.61 226.054C156.121 226.054 155.124 226.757 154.676 227.914H154.561V222.909H151.915V236H154.638V230.324ZM165.947 236.185C167.398 236.185 168.338 235.553 168.817 234.638H168.894V236H171.476V229.378C171.476 227.038 169.494 226.054 167.308 226.054C164.956 226.054 163.409 227.179 163.032 228.969L165.551 229.173C165.736 228.521 166.318 228.042 167.296 228.042C168.222 228.042 168.753 228.509 168.753 229.314V229.352C168.753 229.985 168.082 230.068 166.375 230.234C164.432 230.413 162.687 231.065 162.687 233.258C162.687 235.201 164.074 236.185 165.947 236.185ZM166.727 234.306C165.889 234.306 165.289 233.916 165.289 233.168C165.289 232.401 165.921 232.024 166.88 231.89C167.475 231.807 168.446 231.666 168.772 231.449V232.491C168.772 233.52 167.922 234.306 166.727 234.306ZM173.589 236H176.312V230.445C176.312 229.237 177.194 228.406 178.395 228.406C178.773 228.406 179.29 228.47 179.546 228.553V226.137C179.303 226.08 178.964 226.041 178.689 226.041C177.59 226.041 176.689 226.68 176.331 227.895H176.229V226.182H173.589V236ZM187.25 231.82C187.256 233.136 186.355 233.827 185.377 233.827C184.348 233.827 183.683 233.104 183.677 231.947V226.182H180.954V232.433C180.96 234.728 182.303 236.128 184.278 236.128C185.754 236.128 186.815 235.367 187.256 234.217H187.359V236H189.973V226.182H187.25V231.82ZM192.151 236H194.874V232.881L195.609 232.043L198.287 236H201.477L197.648 230.433L201.292 226.182H198.166L195.021 229.908H194.874V222.909H192.151V236ZM205.351 230.324C205.357 229.058 206.131 228.317 207.243 228.317C208.349 228.317 209.001 229.026 208.994 230.234V236H211.717V229.749C211.724 227.447 210.368 226.054 208.323 226.054C206.834 226.054 205.836 226.757 205.389 227.914H205.274V222.909H202.628V236H205.351V230.324Z" fill="black"/>
<path d="M95.7926 246.609H99.8707V258H101.839V246.609H105.924V244.909H95.7926V246.609ZM110.721 258.198C113.489 258.198 115.298 256.172 115.298 253.136C115.298 250.08 113.489 248.054 110.721 248.054C107.953 248.054 106.145 250.08 106.145 253.136C106.145 256.172 107.953 258.198 110.721 258.198ZM110.728 256.594C108.919 256.594 108.075 255.015 108.075 253.129C108.075 251.25 108.919 249.652 110.728 249.652C112.524 249.652 113.368 251.25 113.368 253.129C113.368 255.015 112.524 256.594 110.728 256.594ZM122.014 248.182H120.001V245.83H118.09V248.182H116.651V249.716H118.09V255.513C118.083 257.297 119.445 258.16 120.953 258.128C121.561 258.121 121.97 258.006 122.193 257.923L121.848 256.344C121.72 256.37 121.484 256.428 121.177 256.428C120.557 256.428 120.001 256.223 120.001 255.117V249.716H122.014V248.182ZM126.986 258.217C128.609 258.217 129.523 257.393 129.888 256.658H129.964V258H131.831V251.48C131.831 248.623 129.581 248.054 128.021 248.054C126.244 248.054 124.608 248.77 123.969 250.56L125.765 250.969C126.046 250.272 126.762 249.601 128.047 249.601C129.281 249.601 129.913 250.246 129.913 251.359V251.403C129.913 252.1 129.197 252.087 127.433 252.292C125.573 252.509 123.668 252.995 123.668 255.226C123.668 257.156 125.119 258.217 126.986 258.217ZM127.401 256.683C126.321 256.683 125.541 256.197 125.541 255.251C125.541 254.229 126.449 253.864 127.555 253.717C128.175 253.634 129.645 253.468 129.92 253.193V254.459C129.92 255.622 128.993 256.683 127.401 256.683ZM136.288 244.909H134.377V258H136.288V244.909ZM140.118 250.975C140.815 250.975 141.397 250.406 141.397 249.697C141.397 249 140.815 248.425 140.118 248.425C139.415 248.425 138.84 249 138.84 249.697C138.84 250.406 139.415 250.975 140.118 250.975ZM140.118 258.121C140.815 258.121 141.397 257.553 141.397 256.843C141.397 256.146 140.815 255.571 140.118 255.571C139.415 255.571 138.84 256.146 138.84 256.843C138.84 257.553 139.415 258.121 140.118 258.121ZM148.42 255.443H154.627V258H156.512V255.443H158.244V253.768H156.512V244.909H154.077L148.42 253.845V255.443ZM154.639 253.768H150.491V253.666L154.537 247.261H154.639V253.768ZM164.793 258.179C167.427 258.179 169.306 256.319 169.3 253.768C169.306 251.237 167.542 249.396 165.157 249.396C164.186 249.396 163.285 249.767 162.773 250.266H162.697L163.112 246.603H168.667V244.909H161.469L160.734 251.506L162.543 251.774C163.035 251.333 163.917 251.033 164.71 251.033C166.263 251.045 167.388 252.209 167.388 253.807C167.388 255.379 166.295 256.517 164.793 256.517C163.528 256.517 162.524 255.712 162.422 254.587H160.504C160.581 256.67 162.39 258.179 164.793 258.179ZM176.192 258.217C179.215 258.217 180.986 255.75 180.986 251.461C180.986 247.204 179.19 244.73 176.192 244.73C173.188 244.73 171.398 247.197 171.391 251.461C171.391 255.744 173.162 258.211 176.192 258.217ZM176.192 256.511C174.421 256.511 173.354 254.734 173.354 251.461C173.36 248.201 174.428 246.405 176.192 246.405C177.95 246.405 179.023 248.201 179.023 251.461C179.023 254.734 177.956 256.511 176.192 256.511ZM187.811 258.217C190.834 258.217 192.605 255.75 192.605 251.461C192.605 247.204 190.809 244.73 187.811 244.73C184.807 244.73 183.017 247.197 183.01 251.461C183.01 255.744 184.781 258.211 187.811 258.217ZM187.811 256.511C186.04 256.511 184.973 254.734 184.973 251.461C184.979 248.201 186.047 246.405 187.811 246.405C189.569 246.405 190.643 248.201 190.643 251.461C190.643 254.734 189.575 256.511 187.811 256.511Z" fill="#929499"/>
<circle cx="59" cy="240" r="27" fill="white" stroke="black" stroke-width="2"/>
<path d="M52.9446 247.179C55.8977 247.179 58.0199 245.6 58.0263 243.478C58.0199 241.842 56.7607 240.506 55.1882 240.244V240.154C56.5561 239.873 57.5341 238.69 57.5405 237.252C57.5341 235.226 55.5909 233.73 52.9446 233.73C50.2919 233.73 48.3487 235.226 48.3551 237.252C48.3487 238.684 49.3139 239.873 50.7074 240.154V240.244C49.1094 240.506 47.8629 241.842 47.8693 243.478C47.8629 245.6 49.9915 247.179 52.9446 247.179ZM52.9446 245.146C51.6278 245.146 50.7457 244.366 50.7457 243.261C50.7457 242.129 51.6726 241.311 52.9446 241.311C54.2102 241.311 55.1435 242.129 55.1435 243.261C55.1435 244.373 54.255 245.146 52.9446 245.146ZM52.9446 239.298C51.8388 239.298 51.0526 238.575 51.0526 237.54C51.0526 236.517 51.826 235.814 52.9446 235.814C54.0568 235.814 54.8366 236.523 54.8366 237.54C54.8366 238.575 54.044 239.298 52.9446 239.298ZM64.7427 247.179C67.6575 247.179 69.639 245.281 69.6326 242.634C69.639 240.129 67.8876 238.326 65.5289 238.326C64.3784 238.326 63.3876 238.805 62.9274 239.451H62.8507L63.1895 236.172H68.9103V233.909H60.9075L60.2875 240.812L62.7484 241.254C63.1511 240.71 63.9309 240.371 64.7044 240.371C66.0211 240.378 66.9672 241.33 66.9672 242.705C66.9672 244.066 66.0403 245.006 64.7427 245.006C63.6433 245.006 62.7548 244.315 62.6909 243.299H60.0062C60.0574 245.562 62.0325 247.179 64.7427 247.179Z" fill="black"/>
<path d="M356.905 23H363.885V21.4588H359.45V21.3892L361.205 19.6044C363.184 17.7053 363.731 16.7805 363.731 15.6321C363.731 13.9268 362.344 12.679 360.295 12.679C358.277 12.679 356.845 13.9318 356.845 15.8658H358.6C358.6 14.8267 359.256 14.1754 360.271 14.1754C361.24 14.1754 361.961 14.767 361.961 15.7266C361.961 16.5767 361.444 17.1832 360.44 18.2024L356.905 21.6676V23ZM372.424 23.1491C374.661 23.1491 376.083 21.5732 376.083 19.2116C376.083 16.8452 374.661 15.2642 372.424 15.2642C370.186 15.2642 368.765 16.8452 368.765 19.2116C368.765 21.5732 370.186 23.1491 372.424 23.1491ZM372.434 21.7074C371.196 21.7074 370.589 20.6037 370.589 19.2067C370.589 17.8097 371.196 16.6911 372.434 16.6911C373.652 16.6911 374.258 17.8097 374.258 19.2067C374.258 20.6037 373.652 21.7074 372.434 21.7074ZM377.61 23H379.41V18.5107C379.41 17.5412 380.141 16.8551 381.13 16.8551C381.433 16.8551 381.811 16.9098 381.965 16.9595V15.304C381.801 15.2741 381.518 15.2543 381.319 15.2543C380.444 15.2543 379.713 15.7514 379.435 16.6364H379.355V15.3636H377.61V23ZM385.68 23.1342C386.993 23.1342 387.585 22.3537 387.868 21.7969H387.977V23H389.747V12.8182H387.942V16.6264H387.868C387.594 16.0746 387.033 15.2642 385.685 15.2642C383.92 15.2642 382.533 16.6463 382.533 19.1918C382.533 21.7074 383.881 23.1342 385.68 23.1342ZM386.183 21.6577C384.994 21.6577 384.368 20.6136 384.368 19.1818C384.368 17.7599 384.984 16.7408 386.183 16.7408C387.341 16.7408 387.977 17.7003 387.977 19.1818C387.977 20.6634 387.331 21.6577 386.183 21.6577ZM395.046 23.1491C396.825 23.1491 398.048 22.2791 398.367 20.9517L396.686 20.7628C396.443 21.4091 395.846 21.7472 395.07 21.7472C393.907 21.7472 393.137 20.9815 393.122 19.674H398.441V19.1222C398.441 16.4425 396.83 15.2642 394.951 15.2642C392.764 15.2642 391.337 16.87 391.337 19.2266C391.337 21.6229 392.744 23.1491 395.046 23.1491ZM393.127 18.4609C393.181 17.4865 393.902 16.6662 394.976 16.6662C396.01 16.6662 396.706 17.4219 396.716 18.4609H393.127ZM399.964 23H401.763V18.5107C401.763 17.5412 402.494 16.8551 403.484 16.8551C403.787 16.8551 404.165 16.9098 404.319 16.9595V15.304C404.155 15.2741 403.871 15.2543 403.673 15.2543C402.798 15.2543 402.067 15.7514 401.788 16.6364H401.709V15.3636H399.964V23ZM411.55 17.3821C411.301 16.0895 410.267 15.2642 408.478 15.2642C406.638 15.2642 405.385 16.169 405.39 17.581C405.385 18.6946 406.071 19.4304 407.538 19.7337L408.841 20.0071C409.542 20.1612 409.87 20.4446 409.87 20.8771C409.87 21.3991 409.303 21.7919 408.448 21.7919C407.623 21.7919 407.086 21.4339 406.931 20.7479L405.176 20.9169C405.4 22.3189 406.578 23.1491 408.453 23.1491C410.362 23.1491 411.709 22.1598 411.714 20.7131C411.709 19.6243 411.008 18.9581 409.566 18.6449L408.264 18.3665C407.488 18.1925 407.18 17.924 407.185 17.4815C407.18 16.9645 407.752 16.6065 408.502 16.6065C409.333 16.6065 409.77 17.0589 409.909 17.5611L411.55 17.3821ZM422.706 17.3821C422.458 16.0895 421.424 15.2642 419.634 15.2642C417.794 15.2642 416.542 16.169 416.547 17.581C416.542 18.6946 417.228 19.4304 418.694 19.7337L419.997 20.0071C420.698 20.1612 421.026 20.4446 421.026 20.8771C421.026 21.3991 420.459 21.7919 419.604 21.7919C418.779 21.7919 418.242 21.4339 418.088 20.7479L416.333 20.9169C416.556 22.3189 417.735 23.1491 419.609 23.1491C421.518 23.1491 422.865 22.1598 422.87 20.7131C422.865 19.6243 422.164 18.9581 420.723 18.6449L419.42 18.3665C418.645 18.1925 418.336 17.924 418.341 17.4815C418.336 16.9645 418.908 16.6065 419.659 16.6065C420.489 16.6065 420.926 17.0589 421.066 17.5611L422.706 17.3821ZM427.735 23.1491C429.515 23.1491 430.738 22.2791 431.056 20.9517L429.376 20.7628C429.132 21.4091 428.536 21.7472 427.76 21.7472C426.597 21.7472 425.826 20.9815 425.811 19.674H431.131V19.1222C431.131 16.4425 429.52 15.2642 427.641 15.2642C425.453 15.2642 424.026 16.87 424.026 19.2266C424.026 21.6229 425.433 23.1491 427.735 23.1491ZM425.816 18.4609C425.871 17.4865 426.592 16.6662 427.665 16.6662C428.7 16.6662 429.396 17.4219 429.406 18.4609H425.816ZM434.453 12.8182H432.653V23H434.453V12.8182ZM439.684 23.1491C441.464 23.1491 442.687 22.2791 443.005 20.9517L441.325 20.7628C441.081 21.4091 440.485 21.7472 439.709 21.7472C438.546 21.7472 437.775 20.9815 437.76 19.674H443.08V19.1222C443.08 16.4425 441.469 15.2642 439.59 15.2642C437.402 15.2642 435.975 16.87 435.975 19.2266C435.975 21.6229 437.382 23.1491 439.684 23.1491ZM437.765 18.4609C437.82 17.4865 438.541 16.6662 439.615 16.6662C440.649 16.6662 441.345 17.4219 441.355 18.4609H437.765ZM447.933 23.1491C449.852 23.1491 451.075 22.0107 451.205 20.3899H449.485C449.33 21.2102 448.739 21.6825 447.948 21.6825C446.825 21.6825 446.099 20.7429 446.099 19.1818C446.099 17.6406 446.84 16.7159 447.948 16.7159C448.813 16.7159 449.345 17.2727 449.485 18.0085H451.205C451.08 16.353 449.788 15.2642 447.923 15.2642C445.686 15.2642 444.274 16.88 444.274 19.2116C444.274 21.5234 445.651 23.1491 447.933 23.1491ZM456.496 15.3636H454.989V13.5341H453.19V15.3636H452.106V16.7557H453.19V21.0014C453.18 22.4382 454.224 23.1442 455.576 23.1044C456.088 23.0895 456.441 22.9901 456.635 22.9254L456.332 21.5185C456.232 21.5433 456.028 21.5881 455.805 21.5881C455.352 21.5881 454.989 21.429 454.989 20.7031V16.7557H456.496V15.3636ZM461.3 23.1491C463.079 23.1491 464.302 22.2791 464.621 20.9517L462.94 20.7628C462.697 21.4091 462.1 21.7472 461.324 21.7472C460.161 21.7472 459.39 20.9815 459.376 19.674H464.695V19.1222C464.695 16.4425 463.084 15.2642 461.205 15.2642C459.018 15.2642 457.591 16.87 457.591 19.2266C457.591 21.6229 458.998 23.1491 461.3 23.1491ZM459.381 18.4609C459.435 17.4865 460.156 16.6662 461.23 16.6662C462.264 16.6662 462.96 17.4219 462.97 18.4609H459.381ZM469.051 23.1342C470.364 23.1342 470.956 22.3537 471.239 21.7969H471.348V23H473.118V12.8182H471.314V16.6264H471.239C470.966 16.0746 470.404 15.2642 469.056 15.2642C467.292 15.2642 465.904 16.6463 465.904 19.1918C465.904 21.7074 467.252 23.1342 469.051 23.1342ZM469.554 21.6577C468.365 21.6577 467.739 20.6136 467.739 19.1818C467.739 17.7599 468.355 16.7408 469.554 16.7408C470.712 16.7408 471.348 17.7003 471.348 19.1818C471.348 20.6634 470.702 21.6577 469.554 21.6577Z" fill="white"/>
<g filter="url(#filter3_d)">
<rect x="280" y="30" width="195" height="44" rx="10" fill="#05D96D"/>
</g>
<path d="M303.55 48.7102H305.908C305.874 46.6364 304.17 45.2045 301.579 45.2045C299.028 45.2045 297.158 46.6136 297.17 48.7273C297.164 50.4432 298.374 51.4261 300.34 51.8977L301.607 52.2159C302.874 52.5227 303.579 52.8864 303.585 53.6705C303.579 54.5227 302.772 55.1023 301.522 55.1023C300.244 55.1023 299.323 54.5114 299.244 53.3466H296.863C296.925 55.8636 298.727 57.1648 301.55 57.1648C304.391 57.1648 306.062 55.8068 306.067 53.6761C306.062 51.7386 304.602 50.7102 302.579 50.2557L301.533 50.0057C300.522 49.7727 299.675 49.3977 299.692 48.5625C299.692 47.8125 300.357 47.2614 301.562 47.2614C302.738 47.2614 303.46 47.7955 303.55 48.7102ZM311.654 57.1705C313.813 57.1705 315.268 56.1193 315.609 54.5L313.37 54.3523C313.126 55.017 312.501 55.3636 311.694 55.3636C310.484 55.3636 309.717 54.5625 309.717 53.2614V53.2557H315.66V52.5909C315.66 49.625 313.864 48.1591 311.558 48.1591C308.989 48.1591 307.325 49.983 307.325 52.6761C307.325 55.4432 308.967 57.1705 311.654 57.1705ZM309.717 51.7557C309.768 50.7614 310.523 49.9659 311.597 49.9659C312.648 49.9659 313.376 50.7159 313.381 51.7557H309.717ZM319.66 51.9545C319.665 50.8295 320.336 50.1705 321.313 50.1705C322.285 50.1705 322.87 50.8068 322.864 51.875V57H325.285V51.4432C325.285 49.4091 324.092 48.1591 322.273 48.1591C320.978 48.1591 320.04 48.7955 319.648 49.8125H319.546V48.2727H317.239V57H319.66V51.9545ZM330.408 57.142C331.817 57.142 332.55 56.3295 332.886 55.6023H332.988V57H335.374V45.3636H332.96V49.7386H332.886C332.562 49.0284 331.863 48.1591 330.403 48.1591C328.488 48.1591 326.869 49.6477 326.869 52.6477C326.869 55.5682 328.42 57.142 330.408 57.142ZM331.175 55.2159C329.988 55.2159 329.34 54.1591 329.34 52.6364C329.34 51.125 329.977 50.0852 331.175 50.0852C332.352 50.0852 333.011 51.0795 333.011 52.6364C333.011 54.1932 332.34 55.2159 331.175 55.2159ZM345.761 48.2727H344.028V47.6875C344.028 47.0966 344.266 46.75 344.977 46.75C345.266 46.75 345.562 46.8125 345.755 46.875L346.181 45.0568C345.88 44.9659 345.215 44.8182 344.471 44.8182C342.829 44.8182 341.607 45.7443 341.607 47.642V48.2727H340.374V50.0909H341.607V57H344.028V50.0909H345.761V48.2727ZM350.87 57.1705C353.518 57.1705 355.165 55.358 355.165 52.6705C355.165 49.9659 353.518 48.1591 350.87 48.1591C348.222 48.1591 346.575 49.9659 346.575 52.6705C346.575 55.358 348.222 57.1705 350.87 57.1705ZM350.881 55.2955C349.66 55.2955 349.035 54.1761 349.035 52.6534C349.035 51.1307 349.66 50.0057 350.881 50.0057C352.08 50.0057 352.705 51.1307 352.705 52.6534C352.705 54.1761 352.08 55.2955 350.881 55.2955ZM356.739 57H359.16V52.0625C359.16 50.9886 359.944 50.25 361.012 50.25C361.347 50.25 361.808 50.3068 362.035 50.3807V48.233C361.819 48.1818 361.518 48.1477 361.273 48.1477C360.296 48.1477 359.495 48.7159 359.177 49.7955H359.086V48.2727H356.739V57ZM371.16 57C374.705 57 376.853 54.8068 376.853 51.1705C376.853 47.5455 374.705 45.3636 371.194 45.3636H367.035V57H371.16ZM369.495 54.892V47.4716H371.063C373.245 47.4716 374.398 48.5852 374.398 51.1705C374.398 53.767 373.245 54.892 371.058 54.892H369.495ZM382.607 57.1705C384.766 57.1705 386.221 56.1193 386.562 54.5L384.323 54.3523C384.079 55.017 383.454 55.3636 382.647 55.3636C381.437 55.3636 380.67 54.5625 380.67 53.2614V53.2557H386.613V52.5909C386.613 49.625 384.817 48.1591 382.511 48.1591C379.942 48.1591 378.278 49.983 378.278 52.6761C378.278 55.4432 379.92 57.1705 382.607 57.1705ZM380.67 51.7557C380.721 50.7614 381.477 49.9659 382.55 49.9659C383.602 49.9659 384.329 50.7159 384.335 51.7557H380.67ZM390.613 45.3636H388.192V57H390.613V45.3636ZM392.552 57H394.972V48.2727H392.552V57ZM393.768 47.1477C394.489 47.1477 395.08 46.5966 395.08 45.9205C395.08 45.25 394.489 44.6989 393.768 44.6989C393.052 44.6989 392.461 45.25 392.461 45.9205C392.461 46.5966 393.052 47.1477 393.768 47.1477ZM405.048 48.2727H402.485L400.678 54.517H400.587L398.775 48.2727H396.218L399.269 57H401.996L405.048 48.2727ZM409.967 57.1705C412.126 57.1705 413.58 56.1193 413.921 54.5L411.683 54.3523C411.438 55.017 410.813 55.3636 410.006 55.3636C408.796 55.3636 408.029 54.5625 408.029 53.2614V53.2557H413.972V52.5909C413.972 49.625 412.177 48.1591 409.87 48.1591C407.302 48.1591 405.637 49.983 405.637 52.6761C405.637 55.4432 407.279 57.1705 409.967 57.1705ZM408.029 51.7557C408.08 50.7614 408.836 49.9659 409.91 49.9659C410.961 49.9659 411.688 50.7159 411.694 51.7557H408.029ZM415.552 57H417.972V52.0625C417.972 50.9886 418.756 50.25 419.825 50.25C420.16 50.25 420.62 50.3068 420.847 50.3807V48.233C420.631 48.1818 420.33 48.1477 420.086 48.1477C419.109 48.1477 418.308 48.7159 417.989 49.7955H417.898V48.2727H415.552V57ZM423.859 60.2727C425.66 60.2727 426.614 59.3523 427.109 57.9432L430.501 48.2841L427.938 48.2727L426.114 54.6818H426.023L424.217 48.2727H421.671L424.802 57.25L424.66 57.6193C424.342 58.4375 423.734 58.4773 422.881 58.2159L422.336 60.0227C422.683 60.1705 423.245 60.2727 423.859 60.2727Z" fill="white"/>
<path d="M457 42L446 53" stroke="white" stroke-width="2" stroke-linecap="round" stroke-linejoin="round"/>
<path d="M457 42L450 62L446 53L437 49L457 42Z" stroke="white" stroke-width="2" stroke-linecap="round" stroke-linejoin="round"/>
<defs>
<filter id="filter0_d" x="20" y="0" width="322" height="118" filterUnits="userSpaceOnUse" color-interpolation-filters="sRGB">
<feFlood flood-opacity="0" result="BackgroundImageFix"/>
<feColorMatrix in="SourceAlpha" type="matrix" values="0 0 0 0 0 0 0 0 0 0 0 0 0 0 0 0 0 0 127 0" result="hardAlpha"/>
<feOffset dy="3"/>
<feGaussianBlur stdDeviation="7.5"/>
<feComposite in2="hardAlpha" operator="out"/>
<feColorMatrix type="matrix" values="0 0 0 0 0 0 0 0 0 0 0 0 0 0 0 0 0 0 1 0"/>
<feBlend mode="normal" in2="BackgroundImageFix" result="effect1_dropShadow"/>
<feBlend mode="normal" in="SourceGraphic" in2="effect1_dropShadow" result="shape"/>
</filter>
<filter id="filter1_d" x="19" y="92" width="322" height="118" filterUnits="userSpaceOnUse" color-interpolation-filters="sRGB">
<feFlood flood-opacity="0" result="BackgroundImageFix"/>
<feColorMatrix in="SourceAlpha" type="matrix" values="0 0 0 0 0 0 0 0 0 0 0 0 0 0 0 0 0 0 127 0" result="hardAlpha"/>
<feOffset dy="3"/>
<feGaussianBlur stdDeviation="7.5"/>
<feComposite in2="hardAlpha" operator="out"/>
<feColorMatrix type="matrix" values="0 0 0 0 0 0 0 0 0 0 0 0 0 0 0 0 0 0 1 0"/>
<feBlend mode="normal" in2="BackgroundImageFix" result="effect1_dropShadow"/>
<feBlend mode="normal" in="SourceGraphic" in2="effect1_dropShadow" result="shape"/>
</filter>
<filter id="filter2_d" x="0" y="184" width="322" height="118" filterUnits="userSpaceOnUse" color-interpolation-filters="sRGB">
<feFlood flood-opacity="0" result="BackgroundImageFix"/>
<feColorMatrix in="SourceAlpha" type="matrix" values="0 0 0 0 0 0 0 0 0 0 0 0 0 0 0 0 0 0 127 0" result="hardAlpha"/>
<feOffset dy="3"/>
<feGaussianBlur stdDeviation="7.5"/>
<feComposite in2="hardAlpha" operator="out"/>
<feColorMatrix type="matrix" values="0 0 0 0 0 0 0 0 0 0 0 0 0 0 0 0 0 0 1 0"/>
<feBlend mode="normal" in2="BackgroundImageFix" result="effect1_dropShadow"/>
<feBlend mode="normal" in="SourceGraphic" in2="effect1_dropShadow" result="shape"/>
</filter>
<filter id="filter3_d" x="268" y="21" width="219" height="68" filterUnits="userSpaceOnUse" color-interpolation-filters="sRGB">
<feFlood flood-opacity="0" result="BackgroundImageFix"/>
<feColorMatrix in="SourceAlpha" type="matrix" values="0 0 0 0 0 0 0 0 0 0 0 0 0 0 0 0 0 0 127 0" result="hardAlpha"/>
<feOffset dy="3"/>
<feGaussianBlur stdDeviation="6"/>
<feComposite in2="hardAlpha" operator="out"/>
<feColorMatrix type="matrix" values="0 0 0 0 0 0 0 0 0 0 0 0 0 0 0 0 0 0 0.2 0"/>
<feBlend mode="normal" in2="BackgroundImageFix" result="effect1_dropShadow"/>
<feBlend mode="normal" in="SourceGraphic" in2="effect1_dropShadow" result="shape"/>
</filter>
</defs>
</svg>
