<svg xmlns="http://www.w3.org/2000/svg" viewBox="0 0 1153.61 300"><defs><style>.cls-1{fill:#929499;}</style></defs><title>Asset 18</title><g id="Layer_2" data-name="Layer 2"><g id="Layer_1-2" data-name="Layer 1"><path class="cls-1" d="M436.25,87.36q-11.62-8.1-27.62-8.1-13.63,0-23.34,5.11a46,46,0,0,0-16,13.76A59.17,59.17,0,0,0,360,117.85a88.2,88.2,0,0,0-3,23,98.57,98.57,0,0,0,3,24.62,58.81,58.81,0,0,0,9.28,20.26,45.68,45.68,0,0,0,16.09,13.75q9.81,5.12,23.46,5.12a45.06,45.06,0,0,0,17.8-3.31,40.12,40.12,0,0,0,13.43-9.16,42.16,42.16,0,0,0,8.85-14,58.26,58.26,0,0,0,3.84-17.48H473q-3,28.78-19.83,44.77t-46.06,16q-17.7,0-30.92-6.07a60.72,60.72,0,0,1-22-16.74,71.79,71.79,0,0,1-13.11-25.16,107.49,107.49,0,0,1-4.37-31.13,101.51,101.51,0,0,1,4.69-31.24,75.24,75.24,0,0,1,13.75-25.48,64.1,64.1,0,0,1,22.6-17.16q13.55-6.28,31-6.29a78,78,0,0,1,22.6,3.2,60.91,60.91,0,0,1,19,9.38,52.56,52.56,0,0,1,13.85,15.46,56.56,56.56,0,0,1,7.25,21.43H451.28Q447.86,95.46,436.25,87.36Z"/><path class="cls-1" d="M514.39,65.82V218.06H496.26V65.82Z"/><path class="cls-1" d="M543.6,88V65.82h18.12V88Zm18.12,19.83V218.06H543.6V107.83Z"/><path class="cls-1" d="M670.24,260.07V203.14h-.42a26.71,26.71,0,0,1-14.07,13.22,54,54,0,0,1-21.11,4q-12.79,0-22.28-4.69a45.81,45.81,0,0,1-15.78-12.58,54.63,54.63,0,0,1-9.49-18.34,75.43,75.43,0,0,1-3.2-22.18A77.84,77.84,0,0,1,587,140.45a52.3,52.3,0,0,1,9.38-18.23,45.37,45.37,0,0,1,15.78-12.37,50.27,50.27,0,0,1,22.07-4.58,54.6,54.6,0,0,1,9.17.85,46.68,46.68,0,0,1,9.81,2.88,42,42,0,0,1,9.27,5.33,29.36,29.36,0,0,1,7.36,8.21h.42V107.83h18.13V260.07Zm-65.13-81.13a40.64,40.64,0,0,0,6.18,13.11A30.28,30.28,0,0,0,622,201.22a32.42,32.42,0,0,0,15.25,3.41q9.16,0,15.56-3.63a31.14,31.14,0,0,0,10.45-9.48,39.7,39.7,0,0,0,5.86-13.33,64.57,64.57,0,0,0-.11-30.81,38.72,38.72,0,0,0-6.07-13.33,31,31,0,0,0-10.77-9.27q-6.61-3.52-16-3.52-9.17,0-15.57,3.62a28.94,28.94,0,0,0-10.23,9.6,41.55,41.55,0,0,0-5.54,13.65,72.23,72.23,0,0,0-1.71,15.77A56.06,56.06,0,0,0,605.11,178.94Z"/><path class="cls-1" d="M759.58,232.77a115.62,115.62,0,0,1-6.29,13.65,37.46,37.46,0,0,1-6.82,9.06,23.16,23.16,0,0,1-8.32,5.12,31.92,31.92,0,0,1-10.55,1.6,49,49,0,0,1-6.4-.43,30.62,30.62,0,0,1-6.18-1.49V243.65a30.54,30.54,0,0,0,5.43,1.81,22.87,22.87,0,0,0,5.23.75,15.51,15.51,0,0,0,9.27-2.67A16.31,16.31,0,0,0,740.6,236l7.47-18.55L704.36,107.83h20.47L757,198h.43l30.91-90.19h19.19Z"/><path class="cls-1" d="M920.56,217.63q-4.69,2.77-13,2.78-7,0-11.19-3.95t-4.16-12.9a43.37,43.37,0,0,1-17.37,12.9,59.93,59.93,0,0,1-35.61,2.24,32.94,32.94,0,0,1-11.62-5.33,25.63,25.63,0,0,1-7.79-9.49,32,32,0,0,1-2.87-14.18q0-9.37,3.19-15.35a28,28,0,0,1,8.43-9.7A38.5,38.5,0,0,1,840.5,159q6.71-1.92,13.75-3.2,7.46-1.49,14.18-2.24a77.18,77.18,0,0,0,11.83-2.13,19.63,19.63,0,0,0,8.1-4.05q3-2.67,3-7.78a18.14,18.14,0,0,0-2.24-9.6,15.35,15.35,0,0,0-5.76-5.54,23.39,23.39,0,0,0-7.89-2.56,59,59,0,0,0-8.63-.64q-11.52,0-19.19,4.37t-8.32,16.53H821.2q.42-10.24,4.27-17.28a32.14,32.14,0,0,1,10.23-11.4,43,43,0,0,1,14.6-6.29,77.13,77.13,0,0,1,17.6-1.92,103.17,103.17,0,0,1,14.81,1.06A38.76,38.76,0,0,1,896,110.7a25.4,25.4,0,0,1,9.59,9.25q3.63,6,3.63,15.53v56.6a42.07,42.07,0,0,0,.75,9.36c.49,2,2.16,3,5,3a21.94,21.94,0,0,0,5.54-.86Zm-29.42-56.5a22.64,22.64,0,0,1-9,3.72q-5.55,1.17-11.62,1.91t-12.26,1.69a45.66,45.66,0,0,0-11.09,3.08,20.06,20.06,0,0,0-8,6.05c-2.07,2.62-3.09,6.19-3.09,10.71a14.58,14.58,0,0,0,1.81,7.53,14.87,14.87,0,0,0,4.69,5,19.9,19.9,0,0,0,6.72,2.76,37.06,37.06,0,0,0,8.1.85A43.29,43.29,0,0,0,872.8,202a32.47,32.47,0,0,0,10.45-6.16,24.23,24.23,0,0,0,6-8.06,20.29,20.29,0,0,0,1.92-8.17Z"/><path class="cls-1" d="M954.46,107.83v17.48h.43q11.29-20,35.82-20,10.88,0,18.12,3a30,30,0,0,1,11.73,8.32,30.93,30.93,0,0,1,6.29,12.69,68.61,68.61,0,0,1,1.81,16.31v72.49h-18.12V143.43q0-10.23-6-16.2t-16.42-6a36.82,36.82,0,0,0-14.39,2.56,26.83,26.83,0,0,0-10.13,7.25,31.3,31.3,0,0,0-6.08,11,44.66,44.66,0,0,0-2,13.75v62.26H937.4V107.83Z"/><path class="cls-1" d="M1153.61,217.63q-4.69,2.77-13,2.78-7,0-11.19-3.95t-4.16-12.9a43.4,43.4,0,0,1-17.38,12.9,59.93,59.93,0,0,1-35.61,2.24,33,33,0,0,1-11.62-5.33,25.61,25.61,0,0,1-7.78-9.49A31.9,31.9,0,0,1,1050,189.7q0-9.37,3.2-15.35a27.92,27.92,0,0,1,8.42-9.7,38.5,38.5,0,0,1,11.94-5.65q6.72-1.92,13.76-3.2,7.46-1.49,14.17-2.24a77.33,77.33,0,0,0,11.84-2.13,19.63,19.63,0,0,0,8.1-4.05q3-2.67,3-7.78a18.14,18.14,0,0,0-2.24-9.6,15.43,15.43,0,0,0-5.76-5.54,23.54,23.54,0,0,0-7.89-2.56,59,59,0,0,0-8.63-.64q-11.52,0-19.19,4.37t-8.32,16.53h-18.12q.42-10.24,4.26-17.28a32.26,32.26,0,0,1,10.24-11.4,43,43,0,0,1,14.6-6.29,77,77,0,0,1,17.59-1.92,103.31,103.31,0,0,1,14.82,1.06,38.9,38.9,0,0,1,13.33,4.37,25.55,25.55,0,0,1,9.59,9.25q3.63,6,3.63,15.53v56.6a42.21,42.21,0,0,0,.74,9.36c.5,2,2.17,3,5,3a22.08,22.08,0,0,0,5.55-.86Zm-29.43-56.5a22.6,22.6,0,0,1-9,3.72q-5.55,1.17-11.62,1.91t-12.26,1.69a45.54,45.54,0,0,0-11.09,3.08,20.1,20.1,0,0,0-8,6.05q-3.09,3.93-3.09,10.71a14.58,14.58,0,0,0,1.81,7.53,15.07,15.07,0,0,0,4.69,5,19.9,19.9,0,0,0,6.72,2.76,37.19,37.19,0,0,0,8.1.85,43.25,43.25,0,0,0,15.35-2.44,32.25,32.25,0,0,0,10.45-6.16,24.23,24.23,0,0,0,6-8.06,20.29,20.29,0,0,0,1.92-8.17Z"/><path class="cls-1" d="M0,0H32.35l95,146.4L222,0h32.76l-114,169.86v118.9h-27.5V169.86Z"/><path class="cls-1" d="M211.71,131.7a68.22,68.22,0,0,0-8-27.51,61.26,61.26,0,0,0-17.19-19.72A78.19,78.19,0,0,0,162,72.55a105.7,105.7,0,0,0-30-4.13q-22,0-39,8.94a86,86,0,0,0-28.43,23.85,108,108,0,0,0-17.43,33.93,130.57,130.57,0,0,0-6,39.21,167.19,167.19,0,0,0,5.5,44,99.75,99.75,0,0,0,17,35.08A78.89,78.89,0,0,0,92,276.61q17,8.25,39.9,8.26a82.56,82.56,0,0,0,30.49-5.51,81.7,81.7,0,0,0,24.76-15.13,78.26,78.26,0,0,0,17.66-23.16A93.92,93.92,0,0,0,214,211.49h17.43A110.64,110.64,0,0,1,220,249.1a92.12,92.12,0,0,1-22,27.74A95.32,95.32,0,0,1,167.68,294a107.18,107.18,0,0,1-35.76,6q-28.89,0-49.3-10.32a94.21,94.21,0,0,1-33.47-27.74,117.5,117.5,0,0,1-19.26-40.13,179.44,179.44,0,0,1-6.2-47.46,151.21,151.21,0,0,1,7.11-46.77A114.29,114.29,0,0,1,51.67,89.06,99,99,0,0,1,85.6,62.92q20.18-9.63,46.32-9.63a129.77,129.77,0,0,1,36,4.81,93.2,93.2,0,0,1,29.8,14.45,75.41,75.41,0,0,1,21.33,24.53Q227.3,112,229.14,131.7Z"/></g></g></svg>