<svg xmlns="http://www.w3.org/2000/svg" viewBox="0 0 966.99 300"><defs><style>.cls-1{fill:#929499;}</style></defs><title>dazzling_1</title><g id="Layer_2" data-name="Layer 2"><g id="Layer_1-2" data-name="Layer 1"><path class="cls-1" d="M0,209.74v-5.3H7.31q12.32,0,17.48-7.88,3.13-4.73,3.15-21.2V49.86q0-18.2-4-22.78-5.59-6.3-16.62-6.31H0v-5.3H79.08q43.56,0,66.26,9.89t36.54,33Q195.7,81.38,195.7,111.6q0,40.54-24.64,67.77-27.65,30.38-84.24,30.37ZM58.88,194q18.2,4,30.52,4,33.24,0,55.16-23.35t21.92-63.32q0-40.26-21.92-63.47T88.25,24.64q-12.89,0-29.37,4.16Z"/><path class="cls-1" d="M274.47,206.3q-20.21,15.63-25.36,18.06a38.86,38.86,0,0,1-16.47,3.58q-13.62,0-22.43-9.32t-8.81-24.49a31.25,31.25,0,0,1,4.3-16.62q5.88-9.75,20.42-18.34t48.35-20.92v-5.16q0-19.62-6.23-26.93t-18.13-7.31q-9,0-14.32,4.87t-5.45,11.18l.29,8.31q0,6.58-3.37,10.17a11.52,11.52,0,0,1-8.81,3.58,11.14,11.14,0,0,1-8.66-3.72c-2.25-2.48-3.37-5.88-3.37-10.17q0-12.33,12.61-22.64t35.38-10.32q17.47,0,28.66,5.88a27,27,0,0,1,12.46,13.9q2.58,6.15,2.58,25.21v44.56q0,18.76.72,23t2.36,5.66a5.59,5.59,0,0,0,3.8,1.43,7.83,7.83,0,0,0,4-1q3-1.86,11.6-10.46v8q-16.05,21.49-30.66,21.49a13.92,13.92,0,0,1-11.17-4.87Q274.62,218.06,274.47,206.3Zm1.72-8.74v-50l-21.63,8.6-6.31,3.58-11.32,6.31-9.74,13.75v18.48l12.32,13.61h18.91Z"/><path class="cls-1" d="M434.76,219.34l-1.58,40.26H317.42v-5.16l87.11-116h-43q-13.91,0-18.2,1.79a14.42,14.42,0,0,0-7,6.8q-3.87,7.17-4.44,17.77h-5.73l.86-36.39h110v5.3L349.08,250h47.85q15,0,20.42-2.51a18.94,18.94,0,0,0,8.67-8.81q2.28-4.58,3.87-19.34Z"/><path class="cls-1" d="M552.49,219.34l-1.57,40.26H435.16v-5.16l87.1-116h-43q-13.89,0-18.19,1.79a14.34,14.34,0,0,0-7,6.8q-3.87,7.17-4.44,17.77H443.9l.86-36.39h110v5.3L466.82,250h47.85q15,0,20.42-2.51a18.87,18.87,0,0,0,8.66-8.81q2.29-4.58,3.87-19.34Z"/><path class="cls-1" d="M606.48,50.14V224.21q0,12.33,1.79,16.33a12.64,12.64,0,0,0,5.51,6.09q3.72,2.09,13.9,2.08v5.16H563.35v-5.16q9,0,12.32-1.86a12.41,12.41,0,0,0,5.16-6.16q1.86-4.31,1.86-16.48V105q0-22.2-1-27.29c-.67-3.39-1.74-5.7-3.22-7a8.52,8.52,0,0,0-5.66-1.86,27,27,0,0,0-9.46,2.29l-2.43-5,39.11-16Z"/><path class="cls-1" d="M678.51,0Q687,31.8,691.19,36t43.48,9.24q-39.25,7-43.48,11.32T680.8,91.69q-5.88-30.79-10.17-35.1T629.8,44.13q36.53-3.87,40.76-8.1T678.51,0ZM690,114.18V219.63q0,12.31,1.79,16.4a12.63,12.63,0,0,0,5.3,6.09q3.51,2,12.83,2v5.15H646.13v-5.15q9.6,0,12.9-1.87a12.78,12.78,0,0,0,5.23-6.16q1.92-4.29,1.93-16.47V169.05q0-21.35-1.29-27.65c-.67-3.05-1.72-5.18-3.15-6.37a8.92,8.92,0,0,0-5.88-1.79,28.52,28.52,0,0,0-9.74,2.15l-2-5.16,39.54-16Z"/><path class="cls-1" d="M758.85,108.17q23.07-27.79,44-27.8a31.61,31.61,0,0,1,18.48,5.37q7.74,5.39,12.32,17.7,3.15,8.59,3.15,26.36v56q0,12.47,2,16.9a11.76,11.76,0,0,0,5.08,5.59q3.51,2,13,2v5.15H792v-5.15h2.72q9.17,0,12.82-2.8a14.65,14.65,0,0,0,5.09-8.24q.57-2.15.57-13.46V132.09q0-17.91-4.65-26T792.81,98q-17.05,0-34,18.63v69.2q0,13.32,1.58,16.47a13.23,13.23,0,0,0,5.52,6.09c2.33,1.29,7.09,1.94,14.25,1.94v5.15H715.3v-5.15h2.87q10,0,13.53-5.09t3.51-19.41V137.11q0-23.64-1.07-28.8c-.72-3.44-1.81-5.78-3.29-7a9,9,0,0,0-6-1.86,27.42,27.42,0,0,0-9.6,2.15l-2.15-5.16,39.54-16h6.16Z"/><path class="cls-1" d="M869.86,188.83a43.13,43.13,0,0,1-24.93-39.69q0-19.48,14.68-33.52t37.61-14q18.76,0,32.52,9.16h27.8c4.1,0,6.49.13,7.16.36a2.43,2.43,0,0,1,1.43,1.22,8.83,8.83,0,0,1,.86,4.59,12.91,12.91,0,0,1-.71,5.15,3,3,0,0,1-1.51,1.15q-1.08.44-7.23.43h-17q8,10.32,8,26.36,0,18.34-14,31.38t-37.68,13a73.18,73.18,0,0,1-19.91-2.86q-6.32,5.44-8.53,9.52a15.27,15.27,0,0,0-2.22,7,6.63,6.63,0,0,0,2.37,4.73q2.36,2.3,9.24,3.3,4,.57,20,1,29.52.72,38.26,2,13.32,1.88,21.27,9.89a27,27,0,0,1,7.95,19.77q0,16.18-15.18,30.37Q927.74,300,891.78,300q-27.66,0-46.71-12.46-10.74-7.17-10.74-14.9a16.36,16.36,0,0,1,1.57-6.88q2.45-5.31,10-14.76,1-1.29,14.61-15.47-7.44-4.44-10.53-7.95a11.74,11.74,0,0,1-3.08-8q0-5,4.09-11.75T869.86,188.83Zm-2,45.55A70.77,70.77,0,0,0,857.68,248c-2.29,4.21-3.44,8.07-3.44,11.61q0,6.87,8.31,12,14.33,8.88,41.4,8.89,25.8,0,38-9.1T954.24,252q0-7.45-7.31-10.61t-29.51-3.72Q885.19,236.83,867.85,234.38Zm27.51-127.65a22.38,22.38,0,0,0-17.77,8.46q-7.15,8.44-7.16,25.93,0,22.63,9.74,35.1,7.46,9.45,18.91,9.45A22.58,22.58,0,0,0,917,177.51q7-8.17,7-25.65,0-22.77-9.88-35.67Q906.83,106.74,895.36,106.73Z"/></g></g></svg>