<svg xmlns="http://www.w3.org/2000/svg" viewBox="0 0 507.37 300"><defs><style>.cls-1,.cls-5{fill:#f7f7f9;}.cls-2,.cls-4{fill:#929499;}.cls-2,.cls-3,.cls-5,.cls-6{fill-rule:evenodd;}.cls-3{fill:#fff;}.cls-6{fill:#231f20;}</style></defs><title>popcorn</title><g id="Layer_2" data-name="Layer 2"><g id="Layer_1-2" data-name="Layer 1"><path class="cls-1" d="M171,66.15a16.69,16.69,0,0,0,.32-1.92m0,0a16.54,16.54,0,0,0,.06-2m0,0A15.34,15.34,0,0,0,170,56.41m0,0a15.4,15.4,0,0,0-3.14-4.54m0,0-.35-.3m0,0a15.89,15.89,0,0,0-2.32-1.79m0,0a14.67,14.67,0,0,0-2.52-1.29m0,0a15.25,15.25,0,0,0-1.52-.49v0m0,0h0m0,0c-.38-.1-.78-.19-1.19-.27m0,0A7.58,7.58,0,0,1,153.9,45m0,0c-.3-.36-.55-.65-.75-.86m0,0-.45-.47m0,0c-.12-.09-.23-.19-.34-.29m0,0a17.82,17.82,0,0,0-5.91-3.7m0,0a18.11,18.11,0,0,0-6.72-1.14m0,0a7.59,7.59,0,0,1-7.64-4.75m0,0A12.36,12.36,0,0,0,131,31.65m0,0a12.7,12.7,0,0,0-1.56-1.89m0,0a12.21,12.21,0,0,0-3.52-2.47m0,0a11.73,11.73,0,0,0-4.11-1v0m0,0A7.58,7.58,0,0,1,115.47,22m0,0a12.39,12.39,0,0,0-.84-1.43m0,0-.24-.32m0,0a11.43,11.43,0,0,0-1.24-1.47l-.08-.08m.08.08-.29-.29m0,0-.13-.14m0,0-.11-.1h0m0,0A12,12,0,0,0,109,16m0,0a12,12,0,0,0-4.36-.79m0,0a11.72,11.72,0,0,0-2.83.32m0,0a12,12,0,0,0-2.69,1m0,0c-.21.11-.41.22-.6.34m0,0-.29.19m0,0a9.28,9.28,0,0,0-.86.59h0m0,0A7.59,7.59,0,0,1,90.62,19m0,0-.19-.06h0m0,0a14.1,14.1,0,0,0-2-.41h0m0,0a15,15,0,0,0-1.86-.12m0,0a13.74,13.74,0,0,0-5.1.95m0,0a13.78,13.78,0,0,0-4.4,2.84h0m0,0L77,22.2m0,0-.2.21m0,0a13.57,13.57,0,0,0-2.19,2.78m0,0a13.67,13.67,0,0,0-1.37,3.24h0m0,0a6.82,6.82,0,0,1-.31.9,7.59,7.59,0,0,1-9.95,4m0,0-.3-.11m0,0-.25-.09m0,0L61.83,33m0,0a15.42,15.42,0,0,0-6-.72m0,0A15.37,15.37,0,0,0,50,33.86m0,0a15.81,15.81,0,0,0-3.7,2.61m0,0A15.8,15.8,0,0,0,43.53,40h0m0,0a15.59,15.59,0,0,0-1.14,2.61m0,0a15.07,15.07,0,0,0-.69,2.8h0m0,0A7.55,7.55,0,0,1,38,50.86m0,0a17.1,17.1,0,0,0-4.69,4m0,0a17,17,0,0,0-3,5.47m0,0a18,18,0,0,0-.52,1.9m0,0a14.47,14.47,0,0,0-.24,1.52m0,0a7.61,7.61,0,0,1-5.26,7m0,0a13.43,13.43,0,0,0-2.82,1.29m0,0a13.24,13.24,0,0,0-2.3,1.81m0,0-.36.36m0,0-.15.13m0,0,0,0h0l-.05,0h0m0,0a13,13,0,0,0-2.38,3.79m0,0a13.16,13.16,0,0,0-1,4.59m0,0a13.82,13.82,0,0,0,.32,3.4m0,0a13.34,13.34,0,0,0,1.12,3.13h0m0,0a7.57,7.57,0,0,1,.59,5.32m0,0a9.17,9.17,0,0,0-.29,1.91m0,0v.14m0,0A10.64,10.64,0,0,0,17,98.61m0,0,0,.17m0,0a10,10,0,0,0,1,3.13m0,0a10.53,10.53,0,0,0,1.74,2.38m0,0c.11.09.22.18.32.28m0,0a9.76,9.76,0,0,0,1.4,1.1m0,0a9.24,9.24,0,0,0,1.13.64,7.62,7.62,0,0,1,4.9,5.44L52.66,217h0c0,.18.08.35.11.53a8.8,8.8,0,0,0,2.93,4.82l.36.3a31.85,31.85,0,0,0,10.63,5.79A80.55,80.55,0,0,0,81.44,232a124,124,0,0,0,35.26,0,81.49,81.49,0,0,0,14.78-3.53,32.3,32.3,0,0,0,10.64-5.78,9.55,9.55,0,0,0,3.21-4.81,6.6,6.6,0,0,1,.15-.87L173.63,99h0a7.59,7.59,0,0,1,3.8-5,10.58,10.58,0,0,0,1.73-1.14,11.59,11.59,0,0,0,1.46-1.5,10.57,10.57,0,0,0,1.72-3.08,10.63,10.63,0,0,0-.19-7.38,10.48,10.48,0,0,0-1.95-3.06l-.3-.28,0,0h0l-.23-.24A10.12,10.12,0,0,0,178,76a11,11,0,0,0-1.85-.92M13.52,118.59l-.27-.17a25,25,0,0,1-3.54-2.77c-.16-.15-.3-.3-.45-.46a25.17,25.17,0,0,1-7.24-14l0-.29A25.6,25.6,0,0,1,1.73,96l0-.21a20.31,20.31,0,0,1,.2-2A28.3,28.3,0,0,1,.64,89.43,28.34,28.34,0,0,1,7.69,63.91l.1-.11h0L8,63.57l.27-.26h0l.22-.21h0a28.26,28.26,0,0,1,5-3.94c.54-.34,1.09-.65,1.64-.94.21-.9.45-1.75.7-2.55a32.72,32.72,0,0,1,5.58-10.29,32.25,32.25,0,0,1,5.89-5.65c.19-.69.39-1.36.62-2a31.46,31.46,0,0,1,2.35-5.14v0h0A30.8,30.8,0,0,1,54.67,17a30.22,30.22,0,0,1,7,.27,29.52,29.52,0,0,1,4.4-5.69,6.91,6.91,0,0,1,.57-.51l.09-.08a29.28,29.28,0,0,1,9.2-5.85A28.87,28.87,0,0,1,86.62,3.1a28.42,28.42,0,0,1,4,.31h0l.64.1.83-.45A27.46,27.46,0,0,1,98.24.8a26.61,26.61,0,0,1,16.25,1.06A27.35,27.35,0,0,1,123,7.17l.14.13h0l.25.23.23.24h0l.18.19a26.61,26.61,0,0,1,2.89,3.37l.26.37a27.08,27.08,0,0,1,16.68,11.56l.18.28a32.9,32.9,0,0,1,18.38,8.24,4.82,4.82,0,0,1,.43.36,4.27,4.27,0,0,1,.38.36l.74.73.36.1v0a29.62,29.62,0,0,1,3.06,1,29,29,0,0,1,5.15,2.61,30.43,30.43,0,0,1,4.59,3.57c.14.14.29.28.42.43a30.21,30.21,0,0,1,9.21,20.85c0,.56,0,1.13,0,1.7a25.24,25.24,0,0,1,3.75,3h0v0l.3.29h0l0,0a5.66,5.66,0,0,1,.47.52,25.78,25.78,0,0,1,5.06,7.82,25.25,25.25,0,0,1,.48,18.22,25.8,25.8,0,0,1-4.22,7.55,26.31,26.31,0,0,1-3.6,3.64c-.37.31-.75.6-1.12.88L160.32,220.51l0,.09a24,24,0,0,1-8,13.4,46.93,46.93,0,0,1-15.7,8.81,95.88,95.88,0,0,1-17.64,4.25,137.26,137.26,0,0,1-39.66,0,96.72,96.72,0,0,1-17.64-4.24A47.11,47.11,0,0,1,45.91,234a5.22,5.22,0,0,1-.48-.46,23.92,23.92,0,0,1-7.6-13.05h0Z"/><path class="cls-2" d="M30.47,93.92h137L141,233.25C80.8,230.09,32.53,169.33,30.47,93.92"/><path class="cls-3" d="M116,102.61l-6.27,130.82A90.28,90.28,0,0,0,131.87,229L150.49,99.6a322.57,322.57,0,0,1-34.51,3M88.18,233.4,81.91,102.6a322.15,322.15,0,0,1-34.08-3h0l-.42-.06L66,228.88A88.94,88.94,0,0,0,88.18,233.4Z"/><path class="cls-4" d="M129.36,222.45c5.67-2,9.3-4,9.72-5.68a7.41,7.41,0,0,1,.17-1.12L166.6,100.93H31.54L58.89,215.66h0a9.3,9.3,0,0,1,.16.92c.16,1.67,3.86,3.79,9.75,5.87,7.74,2.73,18.4,4.41,30.29,4.41s22.56-1.68,30.29-4.42m23.54-3.69c-1.17,7.2-8.2,13.1-18.89,16.88-9.17,3.24-21.5,5.23-34.94,5.23s-25.76-2-34.94-5.23c-10.67-3.77-17.71-9.67-18.89-16.87L15.86,95.54a7,7,0,0,1,5.2-8.43,6.87,6.87,0,0,1,1.61-.19h152.8a7,7,0,0,1,6.75,8.86Z"/><path class="cls-5" d="M135.51,203.64A114.67,114.67,0,0,1,111.45,197L116,102.61a322.57,322.57,0,0,0,34.51-3ZM85.75,182.78,81.91,102.6a322.15,322.15,0,0,1-34.08-3h0l-.42-.06,6.94,48.27A115.93,115.93,0,0,0,85.75,182.78Z"/><path class="cls-2" d="M99.07,61.14c45.91,0,83.15,14.68,83.15,32.78S145,126.71,99.07,126.71,15.92,112,15.92,93.92,53.16,61.14,99.07,61.14"/><path class="cls-6" d="M99.07,68.15c42.07,0,76.18,11.54,76.18,25.77S141.14,119.7,99.07,119.7,22.88,108.16,22.88,93.92,57,68.15,99.07,68.15"/><path class="cls-4" d="M159.35,54.42a8.91,8.91,0,0,0-3.34-.63h0a7,7,0,0,1-6-3.36,11,11,0,0,0-.91-1.27A11.32,11.32,0,0,0,148,48h0a11.51,11.51,0,0,0-17,15.38,7,7,0,0,1,.84,7.94,7.34,7.34,0,0,0,11.78,8.58,7.15,7.15,0,0,0,1.09-1.55,7.72,7.72,0,0,0,.6-1.42,3,3,0,0,1,.09-.41,7,7,0,0,1,8.48-5.09,9,9,0,0,0,4.73-.09,9,9,0,0,0,3.58-15.13,9,9,0,0,0-2.86-1.78m.42-14.29a23.24,23.24,0,0,1,4.67,1.27,22.92,22.92,0,0,1-7.8,44.26,21.3,21.3,0,0,1-39.4-7.45,21.5,21.5,0,0,1,.63-9.5A25.46,25.46,0,0,1,157.55,37.8v0A25.9,25.9,0,0,1,159.77,40.13Z"/><path class="cls-5" d="M156,46.82A15.93,15.93,0,1,1,152.2,78.2a14.32,14.32,0,1,1-26.47-10.26A18.49,18.49,0,1,1,156,46.82"/><path class="cls-5" d="M156,46.82a15.86,15.86,0,0,1,11,4.3l.29.28a31.56,31.56,0,0,1-45.53,3.7A18.48,18.48,0,0,1,156,46.82"/><path class="cls-4" d="M34.15,44.31a23.45,23.45,0,0,1,2.77-8,23.1,23.1,0,0,1,40.7.94h0l.19.38a26.62,26.62,0,0,1,7.47,3.71A26.42,26.42,0,0,1,59.45,87.07c-.48.28-1,.55-1.5.82a24.84,24.84,0,0,1-23.8-43.58m8.34,11.4q-.2.07-.69.33a10.87,10.87,0,0,0,9.86,19.37,11.76,11.76,0,0,0,2.46-1.71h0a7,7,0,0,1,8.73-.64A12.46,12.46,0,0,0,81,57.17a12.25,12.25,0,0,0-3.84-4.48,12.51,12.51,0,0,0-5.28-2.17,7,7,0,0,1-6.06-5.15,9.64,9.64,0,0,0-.69-1.81h0v0a9.15,9.15,0,0,0-16.1-.36,9.24,9.24,0,0,0-1.15,5.18h0a7,7,0,0,1-4.69,7.08Z"/><path class="cls-5" d="M38.65,49.8a17.26,17.26,0,0,1,2.28-1,16.12,16.12,0,0,1,30.46-8.45,15.31,15.31,0,0,1,1.21,3.17A19.44,19.44,0,1,1,58.88,78.82a17.86,17.86,0,1,1-20.23-29"/><path class="cls-5" d="M38.65,49.8a17.26,17.26,0,0,1,2.28-1,16.12,16.12,0,0,1,30.46-8.45,15.31,15.31,0,0,1,1.21,3.17A19.42,19.42,0,0,1,89,59a31.58,31.58,0,0,1-52-8.29,17.54,17.54,0,0,1,1.64-1"/><path class="cls-4" d="M120.55,44h.08m-10.87,9.84a9.77,9.77,0,0,0,3.38-4.53,7,7,0,0,1,7.31-5.33c.15,0,.12,0,.1,0h.35a5.66,5.66,0,1,0,0-11.32,6.37,6.37,0,0,0-.83.05h0a5.09,5.09,0,0,0-.78.18v0a6.87,6.87,0,0,1-1.38.26,7,7,0,0,1-7.55-6.34,5.65,5.65,0,0,0-1.58-3.42l-.26-.22A5.67,5.67,0,0,0,100,24a7,7,0,0,1-9.41,1.87A7.37,7.37,0,0,0,88.69,25a7.58,7.58,0,0,0-2.07-.27,7.45,7.45,0,0,0-5,1.91l-.26.28a7.4,7.4,0,0,0-2.18,5.27,7.39,7.39,0,0,0,7.45,7.45v0h.15l.42,0h0a7,7,0,0,1,7.2,6.76,9.65,9.65,0,0,0,15.32,7.39Zm14.85,3.8A23.58,23.58,0,0,1,81.53,53a21.54,21.54,0,0,1-10.06-5.67l0,0a21.41,21.41,0,0,1,0-30.32c.15-.14.3-.28.46-.41a21.21,21.21,0,0,1,20.66-5l.19.05a19.61,19.61,0,0,1,25.13,1.12,5.44,5.44,0,0,1,.48.48,19.73,19.73,0,0,1,3.92,5.41,19.67,19.67,0,0,1,2.32,38.93Z"/><path class="cls-5" d="M119.93,50.9a16.6,16.6,0,0,1-32.47-4.29q-.42,0-.84,0A14.46,14.46,0,1,1,94.33,20a12.66,12.66,0,0,1,22.93,6.19,12.47,12.47,0,0,1,3.64-.53,12.66,12.66,0,0,1,0,25.32c-.33,0-.65,0-1,0"/><path class="cls-5" d="M75.51,22.94a14.45,14.45,0,0,1,18.82-3,12.66,12.66,0,0,1,22.93,6.19,12.47,12.47,0,0,1,3.64-.53,12.62,12.62,0,0,1,10,4.91,31.58,31.58,0,0,1-55.4-7.59"/><path class="cls-4" d="M93.81,70.82a23.13,23.13,0,0,1,2.25-4.3,26.23,26.23,0,0,1-.22-3.2,25.49,25.49,0,0,1,49.73-7.85,21.28,21.28,0,0,1,5.64,34.12l0,0h0a21.2,21.2,0,0,1-19.74,5.72,22.84,22.84,0,0,1-32.08.55,5.87,5.87,0,0,1-.46-.41,22.88,22.88,0,0,1-6.72-16.22,22.64,22.64,0,0,1,1.65-8.46m14.65,2.45a8.62,8.62,0,0,0-2.29,6,8.89,8.89,0,0,0,2.61,6.32l.27.28a8.91,8.91,0,0,0,6,2.34A9,9,0,0,0,119.64,87a9.12,9.12,0,0,0,3.29-3.38,7,7,0,0,1,9.49-2.71l.05,0h0a7.65,7.65,0,0,0,1.75.71,7.48,7.48,0,0,0,7.06-1.89l0,0a7.34,7.34,0,0,0,.58-9.66,7.33,7.33,0,0,0-4-2.61,7,7,0,0,1-5.25-6,11.49,11.49,0,0,0-19.47-6.27,11.4,11.4,0,0,0-3.36,8.11,11.74,11.74,0,0,0,.09,1.6,10.35,10.35,0,0,0,.32,1.52A6.94,6.94,0,0,1,108.46,73.27Z"/><path class="cls-5" d="M103.53,68.32A15.94,15.94,0,1,0,129,87a14.32,14.32,0,1,0,10.6-26.34,18.49,18.49,0,0,0-36.78,2.64,18.69,18.69,0,0,0,.68,5"/><path class="cls-5" d="M148.13,66.79a14.38,14.38,0,0,0-8.5-6.11,18.49,18.49,0,0,0-36.78,2.64,18.25,18.25,0,0,0,.31,3.41,31.57,31.57,0,0,0,45,.06"/><path class="cls-4" d="M42.17,83.5a4.9,4.9,0,0,0-1.86-.35h0a7,7,0,0,1-6-3.36,7.45,7.45,0,0,0-.54-.75,8.43,8.43,0,0,0-.64-.71,6.92,6.92,0,0,0-9.49.08l-.24.27a6.75,6.75,0,0,0-1.84,4.38,6.88,6.88,0,0,0,1.49,4.58h0a7,7,0,0,1,.67,7.72,3.76,3.76,0,0,0,6,4.38h0a3.62,3.62,0,0,0,.54-.79,4.3,4.3,0,0,0,.3-.68l.06-.26a7,7,0,0,1,8.45-5.11,5,5,0,0,0,4.64-1.18l.22-.25a4.94,4.94,0,0,0-.25-7h0a4.87,4.87,0,0,0-1.57-1m1.86-14a18,18,0,0,1,3.22.93,18.72,18.72,0,0,1,6,3.83h0a18.94,18.94,0,0,1,.85,26.75,5.6,5.6,0,0,1-.43.41,18.67,18.67,0,0,1-8,4.79,19,19,0,0,1-3.94.72,17.66,17.66,0,0,1-1.84,2.3v0h0A17.73,17.73,0,0,1,9.52,100a17.89,17.89,0,0,1,.34-7.17,20.9,20.9,0,0,1,3.37-23.71c.14-.14.29-.29.44-.42a20.79,20.79,0,0,1,29-.52C43.16,68.62,43.62,69.09,44,69.55Z"/><path class="cls-5" d="M40.28,76.17a11.94,11.94,0,1,1-2.83,23.52A10.73,10.73,0,1,1,17.62,92,13.85,13.85,0,1,1,40.28,76.17"/><path class="cls-5" d="M40.28,76.17a11.94,11.94,0,1,1-2.83,23.52,11.49,11.49,0,0,1-.59,1.77c-.48,0-1,0-1.45,0a31.44,31.44,0,0,1-18.94-6.3A10.62,10.62,0,0,1,17.62,92,13.85,13.85,0,0,1,37.9,73.24a13.48,13.48,0,0,1,2.38,2.93"/><path class="cls-4" d="M165.45,99.13a7.35,7.35,0,0,0,2.48-4.38,7,7,0,0,1,5.46-6,4,4,0,0,0,2-6.76l0,0a4,4,0,0,0-2.83-1.15v0h0l-.32,0A7,7,0,0,1,165,76a4,4,0,0,0-1.45-2,4,4,0,0,0-2.38-.76,4,4,0,0,0-2.07.56,4.06,4.06,0,0,0-1.49,1.56h0a7,7,0,0,1-6.77,3.7h-.31c-.14,0,.17,0-.26,0a5.58,5.58,0,0,0-3.93,1.63h0a5.6,5.6,0,0,0,2,9.17,7,7,0,0,1,5.07,5.29,7.38,7.38,0,0,0,7.27,5.83,7.38,7.38,0,0,0,4.84-1.79Zm15.24,1.78a21.41,21.41,0,0,1-6.11,8.79h0l0,0a21.46,21.46,0,0,1-33.78-8,19.51,19.51,0,0,1-4.41-30.94v0a19.55,19.55,0,0,1,11.36-5.58,18.19,18.19,0,0,1,4.09-3.38,17.94,17.94,0,0,1,19.93.91,18.32,18.32,0,0,1,4.33,4.54,18,18,0,0,1,9.15,4.92l0,0h0l0,0a18,18,0,0,1-4.61,28.72Z"/><path class="cls-5" d="M174.87,95.62a14.44,14.44,0,0,1-28.38.94A12.57,12.57,0,0,1,150.21,72c.4,0,.79,0,1.17.05a11,11,0,0,1,20.24,1.86c.31,0,.61,0,.92,0a11,11,0,0,1,2.33,21.76"/><path class="cls-5" d="M137.73,83.16A12.56,12.56,0,0,1,150.21,72c.4,0,.79,0,1.17.05a11,11,0,0,1,20.24,1.86c.31,0,.61,0,.92,0A11,11,0,0,1,182,79.19a31.59,31.59,0,0,1-44.24,4"/><path class="cls-4" d="M63.8,98.23a24.27,24.27,0,0,1-7.12-10.52,20.35,20.35,0,0,1-7.06-5.58,20.18,20.18,0,0,1,12.3-32.55,20.17,20.17,0,0,1,32.45-2.42,22,22,0,0,1,7.91,41.49,24.25,24.25,0,0,1-38,10q-.25-.18-.51-.39m5.68-16.74a10.21,10.21,0,0,0,3.46,6.12l.31.29A10.31,10.31,0,0,0,89.72,82a7,7,0,0,1,5.09-5.3,8.07,8.07,0,0,0-2.72-15.67c-.44,0-.23,0-.4,0l-.37,0a7,7,0,0,1-6.8-3.69h0A6.3,6.3,0,0,0,82.22,55a6.19,6.19,0,0,0-9.11,3.46,7,7,0,0,1-7.28,4.88h0c-.2,0-.19,0-.18,0h-.31v0A6.19,6.19,0,0,0,64,75.54,7,7,0,0,1,69.48,81.49Z"/><path class="cls-5" d="M62.54,82.37a17.3,17.3,0,0,0,34,1.12,15.06,15.06,0,0,0-4.46-29.44,13,13,0,0,0-1.4.07,13.18,13.18,0,0,0-24.25,2.22c-.37,0-.73-.05-1.1-.05a13.19,13.19,0,0,0-2.8,26.08"/><path class="cls-5" d="M106.8,65.85a15.07,15.07,0,0,0-14.71-11.8,13,13,0,0,0-1.4.07,13.18,13.18,0,0,0-24.25,2.22c-.37,0-.73-.05-1.1-.05a13.16,13.16,0,0,0-9.7,4.25,31.59,31.59,0,0,0,51.16,5.31"/><path class="cls-4" d="M120.68,89.66A17.66,17.66,0,0,1,122,84.19a7.94,7.94,0,0,1,.34-.72,18.05,18.05,0,0,1,6.27-7.4l.05,0a18,18,0,0,1,24.71,4.34,20.38,20.38,0,0,1,5.17,1.92h0a20.38,20.38,0,0,1-14.25,37.81l-.16.11a4.94,4.94,0,0,1-.49.3,19.27,19.27,0,0,1-22.94-30.85m9.9,10-.32.21v0a5.33,5.33,0,0,0-2.21,3.4,5.4,5.4,0,0,0,.81,4,5.39,5.39,0,0,0,7.16,1.57l.23-.16.39-.28.21-.21a4.16,4.16,0,0,0,.51-.52h0a7,7,0,0,1,8.56-1.72,6.49,6.49,0,0,0,3.36.7,6.35,6.35,0,0,0,3.21-1.08,6.4,6.4,0,0,0-.58-11h0a6.58,6.58,0,0,0-2.6-.75,7,7,0,0,1-6.78-4.37l-.17-.4c-.06-.12-.13-.22-.19-.32h0v0l-.08-.11a4.18,4.18,0,0,0-5.64-1.05l-.12.08A4.16,4.16,0,0,0,135,89.12l-.12.32a4.15,4.15,0,0,0-.26,2.4,7,7,0,0,1-3.77,7.65c-.13.06,0,0-.28.18h0Z"/><path class="cls-5" d="M126.35,94.08a13.72,13.72,0,0,1,1.47-.86,11.11,11.11,0,0,1,20.09-8.43,11.69,11.69,0,0,1,1.1,2.06,13.4,13.4,0,1,1-6.3,25.3,12.31,12.31,0,1,1-16.36-18.07"/><path class="cls-5" d="M127.1,93.61l.72-.39a11.11,11.11,0,0,1,20.09-8.43,11.69,11.69,0,0,1,1.1,2.06,13.39,13.39,0,0,1,13.05,15.69,31.59,31.59,0,0,1-35-8.93"/><path class="cls-4" d="M116.8,108.6a5.71,5.71,0,0,0,2.26-3.3,6.88,6.88,0,0,1,.13-.77,5.58,5.58,0,0,0-1-3.82,5.71,5.71,0,0,0-3.3-2.26,5.43,5.43,0,0,1-.56-.09l-.29,0v0a6.6,6.6,0,0,1-1.55-.37A7,7,0,0,1,108.33,89l.14-.52.12-.48,0-.06a6.24,6.24,0,0,0-12.23-2.45l0,.24-.06.36a7,7,0,0,1-5.16,6,10.38,10.38,0,0,0-7.63,8.33,10.38,10.38,0,0,0,1.74,7.81,10.52,10.52,0,0,0,6.81,4.32,10.4,10.4,0,0,0,5-.37,10.54,10.54,0,0,0,4.29-2.7h0a7,7,0,0,1,9-.9,5.63,5.63,0,0,0,1.06.57h0a6.49,6.49,0,0,0,1,.29l.18,0h.06a5.56,5.56,0,0,0,4.19-.94m16.1-1.3h0c0,.15-.06.31-.1.46a19.63,19.63,0,0,1-22.58,15.52h0l-.46-.1a20,20,0,0,1-2.34-.6,24.84,24.84,0,0,1-6,2.92,24.45,24.45,0,0,1-25.6-39.76,24.82,24.82,0,0,1,7.63-5.64,20.2,20.2,0,0,1,39.23,6.44,19.67,19.67,0,0,1,10.24,20.74Z"/><path class="cls-5" d="M126,106.13a12.64,12.64,0,0,1-14.63,10.28,12.49,12.49,0,0,1-5-2,17.47,17.47,0,1,1-17.07-29c0-.25.06-.51.11-.76a13.22,13.22,0,0,1,26,4.55,13.43,13.43,0,0,1-.6,2.22c.29,0,.57.07.85.12A12.64,12.64,0,0,1,126,106.13"/><path class="cls-4" d="M68.56,102.78a4.92,4.92,0,0,0-.9-1.43,7,7,0,0,1-1.78-6.82c.07-.27.13-.53.17-.76l0-.17a7.16,7.16,0,0,0,.05-.93,6.85,6.85,0,0,0-2-4.85l0,0a6.86,6.86,0,0,0-11.6,3.69,7,7,0,0,1-5.25,6,3.73,3.73,0,0,0,.94,7.35,3.81,3.81,0,0,0,1-.11,3.46,3.46,0,0,0,.89-.36h0l0,0A7,7,0,0,1,59.6,107a5,5,0,0,0,1.83,1.87,4.86,4.86,0,0,0,2.51.66,4.93,4.93,0,0,0,4.94-4.94,5.13,5.13,0,0,0-.32-1.84M80,94.65a19.43,19.43,0,0,1,1.5,3,18.89,18.89,0,0,1-27.15,23.3,19.2,19.2,0,0,1-3.21-2.38,16.38,16.38,0,0,1-3,.27,17.73,17.73,0,0,1-8.52-33.28A20.82,20.82,0,0,1,74,77.92v0h0l0,0a20.78,20.78,0,0,1,6.09,14.69C80.13,93.29,80.09,94,80,94.65Z"/><path class="cls-5" d="M72.61,96.41a11.94,11.94,0,1,1-19.11,14,10.73,10.73,0,1,1-7.94-19.73,13.85,13.85,0,1,1,27.05,5.72"/><path class="cls-5" d="M72.61,96.41a11.93,11.93,0,0,1,3.27,8.14,31.58,31.58,0,0,1-38.34-4.7,10.73,10.73,0,0,1,8-9.16,13.85,13.85,0,1,1,27.05,5.72"/><path class="cls-4" d="M62.12,218.62a24.63,24.63,0,0,1-2.49-.27A25.2,25.2,0,0,1,50.16,215a19.57,19.57,0,0,1-8-9.48,28,28,0,0,1-2-10.87,38.87,38.87,0,0,1,1.65-11.09,44.39,44.39,0,0,1,4.62-10.39,62.57,62.57,0,0,1,6.5-8.85,70.71,70.71,0,0,1,8-7.79,79.55,79.55,0,0,1,9.24-6.65v0a85.35,85.35,0,0,1,10.35-5.4,79.21,79.21,0,0,1,11.14-4,74.73,74.73,0,0,1,11.41-2.21h0a61.19,61.19,0,0,1,9.85-.32,44.09,44.09,0,0,1,9.37,1.49,42.67,42.67,0,0,1,8,3,35.72,35.72,0,0,1,7.06,4.6,34.55,34.55,0,0,1,5.62,6.05,33.73,33.73,0,0,1,4,7.21,40,40,0,0,1,2.19,7.47h0c.25,1.36.44,2.7.57,4.05a45,45,0,0,1,7.36-3,50.71,50.71,0,0,1,9.32-1.91l.41,0c1-.1,2.13-.16,3.35-.17q10.63-.13,17.76,5.78l.86-4.15a12.2,12.2,0,0,1,10.66-9.69h0l20.93-2.3a12.2,12.2,0,0,1,10.17,3.76c1.47-.31,3-.56,4.5-.73a32.75,32.75,0,0,1,5.5-.14,29.62,29.62,0,0,1,5.56.83h0a24.44,24.44,0,0,1,11.45,6.48,24.89,24.89,0,0,1,1.77,2A52.16,52.16,0,0,1,271.68,159a43.29,43.29,0,0,1,8.59-3.69,50.31,50.31,0,0,1,9.29-1.9,43.7,43.7,0,0,1,6-.26h.11a29.27,29.27,0,0,1,5.92.71,12.5,12.5,0,0,1,1.36.4,24.64,24.64,0,0,1,3.87,1.47,20.94,20.94,0,0,1,5,3.26,21.86,21.86,0,0,1,1.73,1.74c1-1,2.11-1.89,3.22-2.76a53.84,53.84,0,0,1,7-4.76,44.38,44.38,0,0,1,8.69-3.65,50.6,50.6,0,0,1,9.36-1.91q13.14-1.45,21.52,5.61a12.2,12.2,0,0,1,10.31-8.38h0l20.92-2.3a12.1,12.1,0,0,1,5.61.72c.69-.36,1.39-.7,2.09-1a27.12,27.12,0,0,1,7.95-2.17l.43,0a22,22,0,0,1,8.71.84,12.29,12.29,0,0,1,4.86-1.6h0l20.92-2.3a12.11,12.11,0,0,1,5.11.54,44.45,44.45,0,0,1,4.52-1.62,32.53,32.53,0,0,1,5.73-1.19h0a31.66,31.66,0,0,1,10.34.5,26,26,0,0,1,9.77,4.38,22,22,0,0,1,7.63,10.23,32.62,32.62,0,0,1,2,11.68,62.43,62.43,0,0,1-1.38,12.17c-.36,1.84-.74,3.6-1.11,5.27l.62-.05,5.5-.61a12.22,12.22,0,0,1,12.9,15.91h0q-1.68,5.13-3.59,9.53A66,66,0,0,1,499,211.8a59.56,59.56,0,0,1-4.43,6.34,40.8,40.8,0,0,1-5.08,5.37,38.82,38.82,0,0,1-5.15,3.83,30.45,30.45,0,0,1-5.76,2.83,46.39,46.39,0,0,1-4.53,1.4,36,36,0,0,1-4.61.83l-.39,0a31.5,31.5,0,0,1-12.65-1A26.38,26.38,0,0,1,451,229a23.34,23.34,0,0,1-4.9-3.87l0,0a27.5,27.5,0,0,1-2.28-2.71l-.72,3.46a12.19,12.19,0,0,1-10.65,9.69h0l-20.93,2.3a12.22,12.22,0,0,1-13.1-15.21L406,185.6l-.24,0h-.05a16.3,16.3,0,0,1-3.57-1.31l-9.72,47.23a12.19,12.19,0,0,1-10.65,9.69h0l-20.93,2.3a12.2,12.2,0,0,1-10.95-4.68,46.1,46.1,0,0,1-4.23,3,43.39,43.39,0,0,1-8.58,4.11,41,41,0,0,1-9.18,2.1l-.37,0a49.14,49.14,0,0,1-6.09.25,41.72,41.72,0,0,1-6.35-.58,29.69,29.69,0,0,1-6.75-2,27.34,27.34,0,0,1-5.35-3.07c-.94.71-1.9,1.39-2.88,2.05a65.51,65.51,0,0,1-7,4.08,49.05,49.05,0,0,1-8.39,3.29,53.57,53.57,0,0,1-8.95,1.72h0a41.21,41.21,0,0,1-13.2-.52,30.17,30.17,0,0,1-12-5.48,24.76,24.76,0,0,1-2.38-2.06,48.62,48.62,0,0,1-4.77,4.35,50.21,50.21,0,0,1-6.69,4.56,42.26,42.26,0,0,1-8.22,3.5,48,48,0,0,1-8.89,1.82,44.38,44.38,0,0,1-4.57.27l-4.68,22.49a12.21,12.21,0,0,1-8.35,9.18l-21.53,7.5A12.2,12.2,0,0,1,164.6,285l4.87-23.5a42.52,42.52,0,0,1-7.76,3.62,41,41,0,0,1-9.18,2.1l-.37,0a49.14,49.14,0,0,1-6.09.25,41.72,41.72,0,0,1-6.35-.58,29.69,29.69,0,0,1-6.75-2,27,27,0,0,1-6.08-3.63,26.6,26.6,0,0,1-5-5.25,10.63,10.63,0,0,1-.67-1,30.91,30.91,0,0,1-2.79-5.19,33.61,33.61,0,0,1-2.07-7.36,46.65,46.65,0,0,1-.63-7.74,67.46,67.46,0,0,1,.7-9.1,57,57,0,0,1-7.88,3.09c-1.1.33-2.21.64-3.33.92L98,263.9a12.22,12.22,0,0,1-10.66,9.65h0l-20.92,2.3a12.21,12.21,0,0,1-13.16-15Z"/><path class="cls-1" d="M62.12,207.53c-.85-.06-1.69-.15-2.49-.27a25.21,25.21,0,0,1-9.47-3.37,19.57,19.57,0,0,1-8-9.48,28,28,0,0,1-2-10.87,38.87,38.87,0,0,1,1.65-11.09,44.39,44.39,0,0,1,4.62-10.39,62.57,62.57,0,0,1,6.5-8.85,70.71,70.71,0,0,1,8-7.79,79.55,79.55,0,0,1,9.24-6.65v0a85.38,85.38,0,0,1,10.35-5.41,80.49,80.49,0,0,1,11.14-4,73.49,73.49,0,0,1,11.41-2.2h0a60,60,0,0,1,9.85-.31,44.09,44.09,0,0,1,9.37,1.48,43.39,43.39,0,0,1,8,3,36.17,36.17,0,0,1,7.06,4.6,34.27,34.27,0,0,1,5.62,6.06,33.67,33.67,0,0,1,4,7.2,40,40,0,0,1,2.19,7.47h0c.25,1.35.44,2.7.57,4a45.93,45.93,0,0,1,7.36-2.95,51.55,51.55,0,0,1,9.32-1.91l.41,0c1-.1,2.13-.16,3.35-.17q10.63-.14,17.76,5.78l.86-4.15a12.21,12.21,0,0,1,10.66-9.69h0l20.93-2.3A12.18,12.18,0,0,1,230.56,149a44,44,0,0,1,4.5-.74,32.75,32.75,0,0,1,5.5-.14,31.35,31.35,0,0,1,5.56.83l0,0v0a24.67,24.67,0,0,1,11.45,6.48,24.89,24.89,0,0,1,1.77,2,52.16,52.16,0,0,1,12.29-9.58,43.29,43.29,0,0,1,8.59-3.69,50.31,50.31,0,0,1,9.29-1.9,45.34,45.34,0,0,1,6-.26h.11a30,30,0,0,1,5.92.71,12.55,12.55,0,0,1,1.36.41,24.62,24.62,0,0,1,3.87,1.46,21.56,21.56,0,0,1,5,3.26,21.86,21.86,0,0,1,1.73,1.74c1-1,2.11-1.89,3.22-2.76a53.84,53.84,0,0,1,7-4.76,44.38,44.38,0,0,1,8.69-3.65,50.6,50.6,0,0,1,9.36-1.91q13.14-1.44,21.52,5.61a12.2,12.2,0,0,1,10.31-8.38h0l20.92-2.3a12.23,12.23,0,0,1,5.61.72c.69-.36,1.39-.7,2.09-1a27.12,27.12,0,0,1,7.95-2.17l.43,0a22,22,0,0,1,8.71.84,12.29,12.29,0,0,1,4.86-1.6h0l20.92-2.3a12.27,12.27,0,0,1,5.11.54,44.45,44.45,0,0,1,4.52-1.62,33.46,33.46,0,0,1,5.73-1.19h0a31.12,31.12,0,0,1,10.34.5,26,26,0,0,1,9.77,4.37,22,22,0,0,1,7.63,10.23,32.62,32.62,0,0,1,2,11.68,62.34,62.34,0,0,1-1.38,12.17c-.36,1.84-.74,3.6-1.11,5.27l.62-.05,5.5-.6a12.22,12.22,0,0,1,12.9,15.91h0q-1.68,5.11-3.59,9.53A65.78,65.78,0,0,1,499,200.7a59.73,59.73,0,0,1-4.43,6.35,42.09,42.09,0,0,1-5.08,5.37,39.63,39.63,0,0,1-5.15,3.82,30.45,30.45,0,0,1-5.76,2.83,43.8,43.8,0,0,1-4.53,1.4,37.91,37.91,0,0,1-4.61.84l-.39,0a31.5,31.5,0,0,1-12.65-1A25.87,25.87,0,0,1,451,217.9a23.34,23.34,0,0,1-4.9-3.87l0,0a26.38,26.38,0,0,1-2.28-2.71l-.72,3.46a12.19,12.19,0,0,1-10.65,9.69h0l-20.93,2.3a12.22,12.22,0,0,1-13.1-15.21L406,174.5l-.24-.05h-.05a16.28,16.28,0,0,1-3.57-1.3l-9.72,47.22a12.19,12.19,0,0,1-10.65,9.69h0l-20.93,2.3a12.17,12.17,0,0,1-10.95-4.68,46.1,46.1,0,0,1-4.23,3,43.39,43.39,0,0,1-8.58,4.11,41,41,0,0,1-9.18,2.1l-.37,0a51.17,51.17,0,0,1-6.09.24,41.72,41.72,0,0,1-6.35-.58,29.69,29.69,0,0,1-6.75-2,27.34,27.34,0,0,1-5.35-3.07c-.94.71-1.9,1.39-2.88,2a63.88,63.88,0,0,1-7,4.08,49.05,49.05,0,0,1-8.39,3.29,53.57,53.57,0,0,1-8.95,1.72h0a41.51,41.51,0,0,1-13.2-.51,30.33,30.33,0,0,1-12-5.49,24.76,24.76,0,0,1-2.38-2.06,47.4,47.4,0,0,1-4.77,4.35,49.27,49.27,0,0,1-6.69,4.56,42.26,42.26,0,0,1-8.22,3.5,48,48,0,0,1-8.89,1.82,41.73,41.73,0,0,1-4.57.27l-4.68,22.49a12.19,12.19,0,0,1-8.35,9.18l-21.53,7.5A12.2,12.2,0,0,1,164.6,274l4.87-23.5a43.15,43.15,0,0,1-7.76,3.61,41,41,0,0,1-9.18,2.1l-.37,0a51.17,51.17,0,0,1-6.09.24,41.72,41.72,0,0,1-6.35-.58,29.69,29.69,0,0,1-6.75-2,26.69,26.69,0,0,1-11.1-8.88,10.63,10.63,0,0,1-.67-1,30.16,30.16,0,0,1-2.79-5.19,33.45,33.45,0,0,1-2.07-7.36,46.65,46.65,0,0,1-.63-7.74,67.46,67.46,0,0,1,.7-9.1,57,57,0,0,1-7.88,3.09c-1.1.34-2.21.64-3.33.92L98,252.8a12.22,12.22,0,0,1-10.66,9.65h0l-20.92,2.3a12.21,12.21,0,0,1-13.16-15Z"/><path class="cls-4" d="M456.92,156.16q0-7.41-5.23-6.83c-2.62.29-4.89,1.84-6.83,4.67a33.59,33.59,0,0,0-4.51,9.94l-9.88,47.74L409.54,214,425,139.63l20.93-2.31-1.6,7.74q4.65-5.75,9.15-7.7a28.25,28.25,0,0,1,7.85-2.31q7-.77,11.55,2.58t4.58,12.07a49.92,49.92,0,0,1-1.09,9.78q-1.08,5.43-2.4,10.73t-2.39,10a35.4,35.4,0,0,0-1.09,7.75,6.68,6.68,0,0,0,1.23,4.29q1.23,1.55,4.58,1.17a9.65,9.65,0,0,0,4.14-1.4,12,12,0,0,0,3.2-3,24,24,0,0,0,2.54-4.27c.78-1.64,1.55-3.47,2.33-5.49l6.1-.67a71.29,71.29,0,0,1-6.54,15,38.24,38.24,0,0,1-7.12,8.85,22.87,22.87,0,0,1-7,4.41,27.73,27.73,0,0,1-6.32,1.57,20,20,0,0,1-8.07-.5,12.34,12.34,0,0,1-5.3-3.12,12,12,0,0,1-2.91-5,20.48,20.48,0,0,1-.87-5.94,46,46,0,0,1,1-8.76c.68-3.42,1.43-6.86,2.25-10.35s1.58-6.88,2.25-10.2a43.3,43.3,0,0,0,1-8.47m-61.61-13.27-2,9.37a66,66,0,0,1,8.79-7.94,18.53,18.53,0,0,1,8.94-3.89c3.29-.36,5.79.48,7.48,2.52a11,11,0,0,1,2.55,7.28,12,12,0,0,1-.66,3.85,11.85,11.85,0,0,1-2,3.63,11.54,11.54,0,0,1-3.27,2.83,11.33,11.33,0,0,1-4.58,1.45c-2,.22-3.41-.11-4.14-1a7.88,7.88,0,0,1-1.52-3c-.29-1.08-.56-2.09-.8-3a1.59,1.59,0,0,0-2-1.24,10.52,10.52,0,0,0-5.24,2.17,51.45,51.45,0,0,0-5.37,4.81l-11.63,56.5L359,219.54l15.41-74.35ZM331.8,209.74a9.36,9.36,0,0,0,5.3-2.83,26.27,26.27,0,0,0,4.95-6.8,56,56,0,0,0,4-10A77,77,0,0,0,348.66,178a3.81,3.81,0,0,1-3.13-1.91,8.28,8.28,0,0,1-.8-3.76,10,10,0,0,1,1.24-5.15,7.38,7.38,0,0,1,3.27-3q-.28-4.47-1.53-6.15t-4-1.38q-3.93.44-7.41,5.1a49.89,49.89,0,0,0-6.11,11.14A87.05,87.05,0,0,0,326,186.33a57.19,57.19,0,0,0-1.6,12.46,37.8,37.8,0,0,0,.36,5.84,8.11,8.11,0,0,0,1.24,3.43,3.9,3.9,0,0,0,2.32,1.56A10.35,10.35,0,0,0,331.8,209.74ZM342.55,148q18.31-2,18.61,20.77a7.24,7.24,0,0,0,1.59,0,24,24,0,0,0,5.45-1.33,44.78,44.78,0,0,0,6-2.61,61.67,61.67,0,0,0,5.82-3.48c1.88-1.27,3.6-2.53,5.15-3.76l1.31,3.78a40.47,40.47,0,0,1-11,8.83,62.69,62.69,0,0,1-14.6,6,73.69,73.69,0,0,1-3.93,18.75,56.52,56.52,0,0,1-7.7,14.72,38.79,38.79,0,0,1-10.61,10A29.89,29.89,0,0,1,326,224a32.68,32.68,0,0,1-9.38-.2,15.35,15.35,0,0,1-12.13-9.78,27.16,27.16,0,0,1-1.74-10.42,62.58,62.58,0,0,1,.87-9.69,73.21,73.21,0,0,1,2.83-11.43,76.19,76.19,0,0,1,5-11.74,50.35,50.35,0,0,1,7.48-10.63,40.79,40.79,0,0,1,10.24-8.1A34.87,34.87,0,0,1,342.55,148Zm-49.69,28.72a28.49,28.49,0,0,0,1.81-5.58,23.46,23.46,0,0,0,.66-4.87q0-5.37-4.07-4.93-3.78.42-7.27,5.16a49.87,49.87,0,0,0-6.1,11.43A90.9,90.9,0,0,0,273.67,192a64.85,64.85,0,0,0-1.6,13.4q0,7.41,2.91,9.57t8.14,1.57a26.22,26.22,0,0,0,7.85-2,33.57,33.57,0,0,0,6.54-3.84,43.36,43.36,0,0,0,5.81-5.29q2.76-3,5.52-6.35l4.94-.54a98.09,98.09,0,0,1-7,10.65,62.63,62.63,0,0,1-8.87,9.55A51.27,51.27,0,0,1,287,226a38.64,38.64,0,0,1-13.22,3.78q-10.32,1.14-16.5-3.56t-6.17-17.05a62.58,62.58,0,0,1,.87-9.69,77.29,77.29,0,0,1,7.63-23A50.29,50.29,0,0,1,267,165.86a39.85,39.85,0,0,1,10.1-8.08,33.94,33.94,0,0,1,13.15-4.07,23.94,23.94,0,0,1,7.92.22,11.24,11.24,0,0,1,4.94,2.37,8.57,8.57,0,0,1,2.54,3.86,14.56,14.56,0,0,1,.73,4.57,17,17,0,0,1-2.25,9q-2.25,3.66-5.45,4a10.93,10.93,0,0,1-2.84-.12A8.88,8.88,0,0,1,292.86,176.68ZM213.22,223.8a14.21,14.21,0,0,0,9.59-5.27,37.36,37.36,0,0,0,6.32-10.94,62.68,62.68,0,0,0,3.42-13.16,82.93,82.93,0,0,0,1-12,20.87,20.87,0,0,0-.8-6.52,9.46,9.46,0,0,0-1.89-3.43,4,4,0,0,0-2.33-1.27,9.52,9.52,0,0,0-2.25,0,10.71,10.71,0,0,0-5.23,2.39,18.35,18.35,0,0,0-4.8,5.83l-8.57,41.64a4.78,4.78,0,0,0,1.74,2.06A5.36,5.36,0,0,0,213.22,223.8Zm7.85-67.13-2.33,11.16a31.87,31.87,0,0,1,7.34-5.32,26.65,26.65,0,0,1,9.67-2.8,19.74,19.74,0,0,1,6.9.4,11.81,11.81,0,0,1,5.67,3.23,16.71,16.71,0,0,1,3.77,6.63,35.12,35.12,0,0,1,1.39,10.75,94,94,0,0,1-.66,10.68,73.54,73.54,0,0,1-2.32,11.66,72.39,72.39,0,0,1-4.36,11.53,43.35,43.35,0,0,1-6.62,10,35.67,35.67,0,0,1-9.37,7.5A32.09,32.09,0,0,1,217.73,236c-3.69.4-6.47.18-8.36-.68a8.74,8.74,0,0,1-4-3.19l-7.55,36.29L175.87,276l24.27-117ZM156.4,229a9.36,9.36,0,0,0,5.3-2.83,26.27,26.27,0,0,0,5-6.8,56,56,0,0,0,4-10,77,77,0,0,0,2.62-12.21,3.79,3.79,0,0,1-3.13-1.91,8.28,8.28,0,0,1-.8-3.76,10,10,0,0,1,1.24-5.15,7.38,7.38,0,0,1,3.27-3q-.28-4.47-1.53-6.15t-4-1.38q-3.93.43-7.41,5.1a49.89,49.89,0,0,0-6.11,11.14,87.05,87.05,0,0,0-4.21,13.54,57.19,57.19,0,0,0-1.6,12.46,37.8,37.8,0,0,0,.36,5.84,8.11,8.11,0,0,0,1.24,3.43,3.86,3.86,0,0,0,2.32,1.56A10.35,10.35,0,0,0,156.4,229Zm10.75-61.78q18.32-2,18.61,20.77a7.24,7.24,0,0,0,1.59,0,24,24,0,0,0,5.45-1.33,44.78,44.78,0,0,0,6-2.61,61.67,61.67,0,0,0,5.82-3.48c1.88-1.27,3.6-2.53,5.15-3.76l1.31,3.78a40.47,40.47,0,0,1-11,8.83,62.59,62.59,0,0,1-14.61,6,73.26,73.26,0,0,1-3.92,18.75,56.68,56.68,0,0,1-7.7,14.72,38.79,38.79,0,0,1-10.61,10,29.89,29.89,0,0,1-12.64,4.44,32.68,32.68,0,0,1-9.38-.2,15.35,15.35,0,0,1-12.13-9.78,27.2,27.2,0,0,1-1.74-10.42,62.58,62.58,0,0,1,.87-9.69A73.21,73.21,0,0,1,131,201.81a77.11,77.11,0,0,1,5-11.74,50.76,50.76,0,0,1,7.49-10.63,40.79,40.79,0,0,1,10.24-8.1A34.87,34.87,0,0,1,167.15,167.25Zm-61.32-15.2L95.51,201.72a21.84,21.84,0,0,0,10.17-5,39.14,39.14,0,0,0,8.07-9.46,48.45,48.45,0,0,0,5.3-12.06,45.44,45.44,0,0,0,1.89-12.64,26.57,26.57,0,0,0-.94-7.16,13.49,13.49,0,0,0-3.2-5.75,13.69,13.69,0,0,0-6.25-3.53,26.49,26.49,0,0,0-10.1-.48,42,42,0,0,0-13.51,3.81,37.88,37.88,0,0,0-11.19,8,36.92,36.92,0,0,0-7.63,11.88,40.16,40.16,0,0,0-2.84,15.35,36.25,36.25,0,0,0,.22,4.41,22.53,22.53,0,0,0,.51,2.71,5.77,5.77,0,0,0,.65,1.6,11.3,11.3,0,0,1,.66,1.09q-7.27.8-11.41-1.73t-4.14-9.93a29.12,29.12,0,0,1,4.5-15.18,54.09,54.09,0,0,1,11.85-13.58,70.79,70.79,0,0,1,16.71-10.27,64.05,64.05,0,0,1,19-5.21,39.61,39.61,0,0,1,14.68.79,26.92,26.92,0,0,1,10.39,5.18,21.41,21.41,0,0,1,6.18,8.47,28,28,0,0,1,2,10.68,37.44,37.44,0,0,1-2.9,14.05,47.23,47.23,0,0,1-8.29,13.41,48.41,48.41,0,0,1-13.22,10.54,46.4,46.4,0,0,1-17.58,5.42l-.73.08-8.87,42.39-20.92,2.3,19.76-94.6Z"/><text/><path class="cls-4" d="M253.32,64.75v54h-8.49V91.85L238,110.3H233l-6.87-18.45v26.94h-8.49v-54h4.86l13,30,13-30Z"/><path class="cls-4" d="M268,73.25V86.83h9.57v8.49H268v15h13.89v8.49H259.5v-54h22.38v8.5Z"/><path class="cls-4" d="M312.53,118.79h-8.65l-4.4-21.69h-3.86v21.69h-8.49v-54H300A12.61,12.61,0,0,1,308.9,68q3.86,3.54,3.86,10v5.79q0,6.57-3.86,10.11a8.28,8.28,0,0,1-1.23,1ZM304.27,78a5.33,5.33,0,0,0-1.16-3.86,4.54,4.54,0,0,0-3.16-.92h-4.33V88.61H300a4.54,4.54,0,0,0,3.16-.93c.77-.72,1.16-2,1.16-3.86Z"/><path class="cls-4" d="M329.9,119.41a13,13,0,0,1-9-3.17,13.67,13.67,0,0,1-3.86-10.11V77.41a13.71,13.71,0,0,1,3.86-10.11,13,13,0,0,1,9-3.16,12.6,12.6,0,0,1,9,3.16q3.86,3.7,3.86,10.11V82.2h-8.49V77.41c0-1.9-.36-3.19-1.08-3.86a4.73,4.73,0,0,0-3.24-.92,4.62,4.62,0,0,0-3.17.92c-.77.73-1.16,2-1.16,3.86v28.72c0,1.85.39,3.14,1.16,3.86a4.57,4.57,0,0,0,3.17.93,4.68,4.68,0,0,0,3.24-.93c.72-.67,1.08-1.95,1.08-3.86V99.18h8.49v6.95q0,6.41-3.86,10.11A12.6,12.6,0,0,1,329.9,119.41Z"/><path class="cls-4" d="M373.51,64.75v54H365V95.32h-8.65v23.47h-8.49v-54h8.49V86.83H365V64.75Z"/><path class="cls-4" d="M404.47,118.79H391.65v-54h11.66a12.9,12.9,0,0,1,8.88,3,10.49,10.49,0,0,1,2.93,4.32,15.08,15.08,0,0,1,1,5.71v5q0,5.48-3.09,8.34,4.25,3,4.25,9.72v4.94a14.33,14.33,0,0,1-1,5.64,10.42,10.42,0,0,1-2.94,4.32A12.68,12.68,0,0,1,404.47,118.79ZM400.14,87.6h3.17a4.54,4.54,0,0,0,3.16-.92,5.29,5.29,0,0,0,1.16-3.86v-5a5.13,5.13,0,0,0-1.08-3.7,4.79,4.79,0,0,0-3.24-.85h-3.17Zm0,22.7h4.33a4.79,4.79,0,0,0,3.24-.85q1.08-1,1.08-3.63v-4.94c0-1.85-.39-3.14-1.16-3.86a4.54,4.54,0,0,0-3.16-.92h-4.33Z"/><path class="cls-4" d="M436.73,99.8v19h-8.57v-19l-10.42-35h9l5.71,19.38,5.87-19.38h9Z"/></g></g></svg>