<svg xmlns="http://www.w3.org/2000/svg" viewBox="0 0 1099.98 300"><defs><style>.cls-1{fill:#929499;}</style></defs><title>wardrobe</title><g id="Layer_2" data-name="Layer 2"><g id="Layer_1-2" data-name="Layer 1"><path class="cls-1" d="M262,9.11v1.27c-16.2,2.78-29.62,16.46-36.71,39.24C218,72.91,181,186.33,181,186.33h-5.57L128.61,64.05,88.35,186.33H82.78S38.73,68.61,29.62,44.3C21.77,24.05,16,10.38,0,10.38V9.11H79.75v1.27c-11.4,0-15.19,5.32-9.37,20.51,7.09,18.48,31.64,88.6,35.44,99L145.31,9.11h6.33l45.07,125.07c11.13-34.43,24-74.43,25.31-80.26,4.56-19.24,3-43.54-13.92-43.54V9.11Z"/><path class="cls-1" d="M362,184.3v1.52a27.8,27.8,0,0,1-12.91,3c-14.68,0-41-2-45.32-23.55C299,175.44,291.64,183.54,281,186.58c-19,5.82-51.39,3.54-50.38-24.05,1.27-31.39,36.2-27.6,61.52-36.2,4.81-1.78,8.35-3.55,10.88-5.57V97.47c0-21.52,1.27-37.72-17.21-37.72-16.46,0-26.84,5.82-30.63,13.67-3.55,8.1,4.55,11.39,6.58,18.48,2,6.83-3.55,14.43-12.41,12.66-7.59-1.52-12.4-10.89-8.1-21.27,4.05-9.37,18.23-24.56,45.32-24.56,23.8,0,54.68,8.1,54.68,42.28v59c0,17.21.51,27.09,12.15,27.09A15.56,15.56,0,0,0,362,184.3Zm-58.48-20.76a28.38,28.38,0,0,1-.51-4.81V122.28a49.39,49.39,0,0,1-9.62,4.55c-12.4,4.56-26.83,6.84-28.35,29.88-1.77,23,4.81,34.93,20.25,27.08C293.92,179.74,299.49,172.15,303.54,163.54Z"/><path class="cls-1" d="M458.47,77.21c-2.28,9.62-14.43,10.89-20.25,7.35-9.62-6.33-4.56-18.74-13.67-16-8.61,2.53-18.48,16.45-22.53,30.12v58.48c.25,20.51,2.53,27.85,16,27.85v1.27H348.09v-1.27c13.67,0,16-7.34,16-27.85V90.13c0-20.76-2.28-27.6-16-27.6V61.26h58.23v1.27c-2.28,1.27-3.8,10.89-4.05,32.66,6.84-21.77,25.57-35.44,36-36.46C453.16,57.47,461.51,65.82,458.47,77.21Z"/><path class="cls-1" d="M579,157.47c0,20.5,2.28,27.59,15.95,27.59v1.27H536.45v-1.27c1.77-.76,3-6.08,3.79-17.47-7.08,14.94-19.24,21.27-33.67,21.27-35.19,0-60.25-23.29-58.48-65.06,1.78-40.51,27.35-55.19,54.18-62,15.19-3.8,26.33-3.29,38.48-2.53V28.86c0-20.51-2.28-27.59-16-27.59V0H583V1.27c-2.28,1.26-4,12.4-4,38V157.47ZM540.75,60.25c-10.63-1-25.32-.76-32.4,2.28-16,6.58-21.52,29.37-22,61.77-.76,34.43,9.11,62,26.58,62,12.91,0,22.28-9.37,27.6-21.27.25-5.06.25-10.89.25-18Z"/><path class="cls-1" d="M695.18,77.21c-2.28,9.62-14.43,10.89-20.26,7.35-9.62-6.33-4.55-18.74-13.67-16-8.6,2.53-18.48,16.45-22.53,30.12v58.48c.26,20.51,2.53,27.85,15.95,27.85v1.27H584.8v-1.27c13.67,0,16-7.34,16-27.85V90.13c0-20.76-2.28-27.6-16-27.6V61.26H643v1.27c-2.28,1.27-3.8,10.89-4,32.66,6.83-21.77,25.56-35.44,35.94-36.46C689.86,57.47,698.22,65.82,695.18,77.21Z"/><path class="cls-1" d="M764.8,188.6c-33.93,2.54-76.46-13.92-80-58.73C681.51,86.83,712.9,63,748.6,59c35.94-3.8,78.22,15.95,80.5,58.48C831.38,159.49,798.72,186.33,764.8,188.6Zm24.3-69.11C785.81,83.54,769.86,58.23,748.85,60c-21,2-27.85,34.94-24.3,68.35,3.79,34.94,19,61.27,40.25,59.24S792.14,153.16,789.1,119.49Z"/><path class="cls-1" d="M970.87,123.8c0,43.54-19,65.06-56,65.06-17,0-25.32-9.62-31.14-16C872.13,160,839,186.33,839,186.33h-1.26V28.86c-.26-20.51-2.54-27.59-16-27.59V0H880V1.27c-2.53,1.26-4.3,12.4-4.3,38V82.78c6.33-12.91,18.48-24.05,37-24.05C942.51,58.73,970.87,80.25,970.87,123.8Zm-38.74,0c0-39.24-3.54-63.29-24.55-63.29-10.89,0-26.33,9.36-31.9,25.31v38c0,18.48,1.52,29.36,3,34.93,4.3,14.68,16.2,27.6,29.87,27.6C925.3,186.33,932.13,164.81,932.13,123.8Z"/><path class="cls-1" d="M1007.57,102c-1,8.36-2,17.22-1.26,25.57,2.28,30.38,16.2,59.75,44.81,60,14.93,0,33.92-7.85,42.53-16v3a87.36,87.36,0,0,1-42.28,13.92c-36.2,2-80.76-15.19-82.78-60.5s34.93-67.59,69.87-69.11c34.43-1.52,57.72,13.16,61.52,43Zm0-.76h56.71c-.76-21.51-6.33-42.53-25.82-41.26C1019.72,61,1010.61,79.49,1007.57,101.26Z"/><path class="cls-1" d="M806,250.69c0,17.21-6.9,27.2-21.57,27.2-7.11,0-10.73-3.83-13.06-6.7-4-4.88-11.9,5.74-11.9,5.74h-.22V210.85c-.1-7.76-.63-11.58-6.69-11.58v-.53h17.21v.53c-1.06.53-1.8,5.31-1.8,15.93v18.17c2.65-5.31,7.75-10,15.51-10C795.06,223.38,806,233.16,806,250.69Zm-8.71,0c0-16.47-5.63-26.46-15.94-26.46-4.57,0-11.05,3.83-13.38,10.42v16c0,7.65.63,12.22,1.27,14.66,1.81,6.16,6.69,11.58,12.54,11.58C792.72,276.93,797.29,267.9,797.29,250.69Z"/><path class="cls-1" d="M864.44,224.45V225c-4.78.85-8.29,5-10.84,11.58-1.59,4-6.59,18.06-11.16,30.92-1.16,3.29-2.23,6.58-3.4,9.45-5.73,13.92-11.58,22.63-18.38,23.06-3.71.21-6.8-2-6.58-5.53.1-3.19,3.5-4.46,5.95-2.87,2.55,1.81,2.12,8.82,6.9,5.21,3.3-2.66,8.29-11.16,11.58-19.87h-.42S821.3,240.17,819,235c-2.12-4.67-4-10-8.71-10v-.53h18.17V225c-3.72,0-3.93,1.8-1.7,7.12,2,5.1,13.92,32,15.3,35.16,4.46-12.53,9.56-26.56,10.09-28,2-5.41,1.49-14.23-3.61-14.23v-.53Z"/><path class="cls-1" d="M943.8,258.44c0,13.07-10.73,19.55-25.18,19.55a71.45,71.45,0,0,1-15-2c-3.29-.84-8.93-2.33-8.93,4.89h-.53V254.09h.53c0,6.16,7.12,23.37,23.91,23.37,9.67,0,16.25-6.16,16.25-14.87,0-18.81-38.88-20.08-38.88-42.5,0-12.64,10.84-18.59,22.1-18.59,5.95,0,10.83,1.91,15.51,3.08,3.82,1.06,5.84,0,5.84-5.84H940v26.77h-.53c0-13-8.5-23.48-21-23.48-6.91,0-14.24,4.14-14.24,14.45C904.17,234.43,943.8,236.77,943.8,258.44Z"/><path class="cls-1" d="M1001.7,224.45V225c-4.78.85-8.29,5-10.84,11.58-1.59,4-6.58,18.06-11.15,30.92-1.17,3.29-2.23,6.58-3.4,9.45-5.74,13.92-11.58,22.63-18.38,23.06-3.72.21-6.8-2-6.59-5.53.11-3.19,3.51-4.46,5.95-2.87,2.55,1.81,2.13,8.82,6.91,5.21,3.29-2.66,8.28-11.16,11.58-19.87h-.43s-16.78-36.76-19.12-42c-2.13-4.67-4-10-8.71-10v-.53h18.16V225c-3.71,0-3.93,1.8-1.7,7.12,2,5.1,13.92,32,15.3,35.16,4.47-12.53,9.57-26.56,10.1-28,2-5.41,1.48-14.23-3.62-14.23v-.53Z"/><path class="cls-1" d="M1047.07,228.38a4,4,0,0,1-6.27,3.19c-2.66-1.7-2.66-5.1-6.59-3.94-3.72,1.07-8.07,7.33-9.56,13.18l-.11,23.9c.11,7.76.64,11.69,6.7,11.69v.53h-22.1v-.53c6.05,0,6.69-3.93,6.69-11.69v-28c0-7.86-.64-11.68-6.69-11.68v-.53h17.21V225c-1,.53-1.7,4.89-1.81,14.66,2.66-9.67,11-15.72,15.09-16.15C1043.88,223,1047.17,225,1047.07,228.38Z"/><path class="cls-1" d="M1100,276.08v.53a9,9,0,0,1-5,1.28c-6,0-11.58-1.49-12.43-10.1-2.44,4.36-5.74,7.76-10.41,9.25-8,2.44-19.23.42-18.49-10.2.75-11.26,15.83-12.75,23.16-15.19a28.62,28.62,0,0,0,5.64-2.55v-9.46c0-9-1.28-15.72-9-15.72-6.91,0-10.2,2-11.8,5.63-1.59,3.4,1.49,4.67,2.23,7.75a3.88,3.88,0,0,1-4.78,4.68c-2.87-.64-4.14-4.47-2.34-8.29s5.64-10.2,17-10.2c10,0,17.43,5,17.43,15.62v26.77c0,7.12.32,11.26,5.2,11.26A8,8,0,0,0,1100,276.08Zm-17.43-8.82a12.17,12.17,0,0,1-.1-1.91V249.52a30.73,30.73,0,0,1-5.21,2.44c-5.1,1.92-15.19,2.87-16.26,12.43-1.16,11.27,6.38,14.67,13,11.48A19.82,19.82,0,0,0,1082.55,267.26Z"/></g></g></svg>